<mxfile host="Electron" modified="2024-02-23T10:32:04.409Z" agent="Mozilla/5.0 (Windows NT 10.0; Win64; x64) AppleWebKit/537.36 (KHTML, like Gecko) draw.io/21.6.8 Chrome/114.0.5735.289 Electron/25.5.0 Safari/537.36" etag="0oIqMXfiy3Qd5opWhPf-" version="21.6.8" type="device">
  <diagram name="Page-1" id="9f46799a-70d6-7492-0946-bef42562c5a5">
    <mxGraphModel dx="1674" dy="1686" grid="1" gridSize="7" guides="1" tooltips="1" connect="1" arrows="1" fold="1" page="1" pageScale="1" pageWidth="1100" pageHeight="850" background="none" math="0" shadow="0">
      <root>
        <mxCell id="0" />
        <mxCell id="1" parent="0" />
        <mxCell id="IFY6uD7Rp_7liyDfAHqy-14" value="Setting" style="whiteSpace=wrap;html=1;align=center;strokeColor=#E07A5F;fontColor=#393C56;fillColor=#F2CC8F;" vertex="1" parent="1">
          <mxGeometry x="28" y="560" width="100" height="40" as="geometry" />
        </mxCell>
        <mxCell id="IFY6uD7Rp_7liyDfAHqy-52" value="Blog" style="shape=table;startSize=30;container=1;collapsible=1;childLayout=tableLayout;fixedRows=1;rowLines=0;fontStyle=1;align=center;resizeLast=1;html=1;strokeColor=#E07A5F;fontColor=#393C56;fillColor=#F2CC8F;" vertex="1" parent="1">
          <mxGeometry x="161" y="105" width="180" height="420" as="geometry" />
        </mxCell>
        <mxCell id="IFY6uD7Rp_7liyDfAHqy-53" value="" style="shape=tableRow;horizontal=0;startSize=0;swimlaneHead=0;swimlaneBody=0;fillColor=none;collapsible=0;dropTarget=0;points=[[0,0.5],[1,0.5]];portConstraint=eastwest;top=0;left=0;right=0;bottom=1;strokeColor=#E07A5F;fontColor=#393C56;" vertex="1" parent="IFY6uD7Rp_7liyDfAHqy-52">
          <mxGeometry y="30" width="180" height="30" as="geometry" />
        </mxCell>
        <mxCell id="IFY6uD7Rp_7liyDfAHqy-54" value="PK" style="shape=partialRectangle;connectable=0;fillColor=none;top=0;left=0;bottom=0;right=0;fontStyle=1;overflow=hidden;whiteSpace=wrap;html=1;strokeColor=#E07A5F;fontColor=#393C56;" vertex="1" parent="IFY6uD7Rp_7liyDfAHqy-53">
          <mxGeometry width="30" height="30" as="geometry">
            <mxRectangle width="30" height="30" as="alternateBounds" />
          </mxGeometry>
        </mxCell>
        <mxCell id="IFY6uD7Rp_7liyDfAHqy-55" value="id" style="shape=partialRectangle;connectable=0;fillColor=none;top=0;left=0;bottom=0;right=0;align=left;spacingLeft=6;fontStyle=5;overflow=hidden;whiteSpace=wrap;html=1;strokeColor=#E07A5F;fontColor=#393C56;" vertex="1" parent="IFY6uD7Rp_7liyDfAHqy-53">
          <mxGeometry x="30" width="150" height="30" as="geometry">
            <mxRectangle width="150" height="30" as="alternateBounds" />
          </mxGeometry>
        </mxCell>
        <mxCell id="IFY6uD7Rp_7liyDfAHqy-56" value="" style="shape=tableRow;horizontal=0;startSize=0;swimlaneHead=0;swimlaneBody=0;fillColor=none;collapsible=0;dropTarget=0;points=[[0,0.5],[1,0.5]];portConstraint=eastwest;top=0;left=0;right=0;bottom=0;strokeColor=#E07A5F;fontColor=#393C56;" vertex="1" parent="IFY6uD7Rp_7liyDfAHqy-52">
          <mxGeometry y="60" width="180" height="30" as="geometry" />
        </mxCell>
        <mxCell id="IFY6uD7Rp_7liyDfAHqy-57" value="" style="shape=partialRectangle;connectable=0;fillColor=none;top=0;left=0;bottom=0;right=0;editable=1;overflow=hidden;whiteSpace=wrap;html=1;strokeColor=#E07A5F;fontColor=#393C56;" vertex="1" parent="IFY6uD7Rp_7liyDfAHqy-56">
          <mxGeometry width="30" height="30" as="geometry">
            <mxRectangle width="30" height="30" as="alternateBounds" />
          </mxGeometry>
        </mxCell>
        <mxCell id="IFY6uD7Rp_7liyDfAHqy-58" value="title" style="shape=partialRectangle;connectable=0;fillColor=none;top=0;left=0;bottom=0;right=0;align=left;spacingLeft=6;overflow=hidden;whiteSpace=wrap;html=1;strokeColor=#E07A5F;fontColor=#393C56;" vertex="1" parent="IFY6uD7Rp_7liyDfAHqy-56">
          <mxGeometry x="30" width="150" height="30" as="geometry">
            <mxRectangle width="150" height="30" as="alternateBounds" />
          </mxGeometry>
        </mxCell>
        <mxCell id="IFY6uD7Rp_7liyDfAHqy-59" value="" style="shape=tableRow;horizontal=0;startSize=0;swimlaneHead=0;swimlaneBody=0;fillColor=none;collapsible=0;dropTarget=0;points=[[0,0.5],[1,0.5]];portConstraint=eastwest;top=0;left=0;right=0;bottom=0;strokeColor=#E07A5F;fontColor=#393C56;" vertex="1" parent="IFY6uD7Rp_7liyDfAHqy-52">
          <mxGeometry y="90" width="180" height="30" as="geometry" />
        </mxCell>
        <mxCell id="IFY6uD7Rp_7liyDfAHqy-60" value="" style="shape=partialRectangle;connectable=0;fillColor=none;top=0;left=0;bottom=0;right=0;editable=1;overflow=hidden;whiteSpace=wrap;html=1;strokeColor=#E07A5F;fontColor=#393C56;" vertex="1" parent="IFY6uD7Rp_7liyDfAHqy-59">
          <mxGeometry width="30" height="30" as="geometry">
            <mxRectangle width="30" height="30" as="alternateBounds" />
          </mxGeometry>
        </mxCell>
        <mxCell id="IFY6uD7Rp_7liyDfAHqy-61" value="date_created" style="shape=partialRectangle;connectable=0;fillColor=none;top=0;left=0;bottom=0;right=0;align=left;spacingLeft=6;overflow=hidden;whiteSpace=wrap;html=1;strokeColor=#E07A5F;fontColor=#393C56;" vertex="1" parent="IFY6uD7Rp_7liyDfAHqy-59">
          <mxGeometry x="30" width="150" height="30" as="geometry">
            <mxRectangle width="150" height="30" as="alternateBounds" />
          </mxGeometry>
        </mxCell>
        <mxCell id="IFY6uD7Rp_7liyDfAHqy-62" value="" style="shape=tableRow;horizontal=0;startSize=0;swimlaneHead=0;swimlaneBody=0;fillColor=none;collapsible=0;dropTarget=0;points=[[0,0.5],[1,0.5]];portConstraint=eastwest;top=0;left=0;right=0;bottom=0;strokeColor=#E07A5F;fontColor=#393C56;" vertex="1" parent="IFY6uD7Rp_7liyDfAHqy-52">
          <mxGeometry y="120" width="180" height="30" as="geometry" />
        </mxCell>
        <mxCell id="IFY6uD7Rp_7liyDfAHqy-63" value="" style="shape=partialRectangle;connectable=0;fillColor=none;top=0;left=0;bottom=0;right=0;editable=1;overflow=hidden;whiteSpace=wrap;html=1;strokeColor=#E07A5F;fontColor=#393C56;" vertex="1" parent="IFY6uD7Rp_7liyDfAHqy-62">
          <mxGeometry width="30" height="30" as="geometry">
            <mxRectangle width="30" height="30" as="alternateBounds" />
          </mxGeometry>
        </mxCell>
        <mxCell id="IFY6uD7Rp_7liyDfAHqy-64" value="date_approval" style="shape=partialRectangle;connectable=0;fillColor=none;top=0;left=0;bottom=0;right=0;align=left;spacingLeft=6;overflow=hidden;whiteSpace=wrap;html=1;strokeColor=#E07A5F;fontColor=#393C56;" vertex="1" parent="IFY6uD7Rp_7liyDfAHqy-62">
          <mxGeometry x="30" width="150" height="30" as="geometry">
            <mxRectangle width="150" height="30" as="alternateBounds" />
          </mxGeometry>
        </mxCell>
        <mxCell id="IFY6uD7Rp_7liyDfAHqy-68" value="" style="shape=tableRow;horizontal=0;startSize=0;swimlaneHead=0;swimlaneBody=0;fillColor=none;collapsible=0;dropTarget=0;points=[[0,0.5],[1,0.5]];portConstraint=eastwest;top=0;left=0;right=0;bottom=0;strokeColor=#E07A5F;fontColor=#393C56;" vertex="1" parent="IFY6uD7Rp_7liyDfAHqy-52">
          <mxGeometry y="150" width="180" height="30" as="geometry" />
        </mxCell>
        <mxCell id="IFY6uD7Rp_7liyDfAHqy-69" value="" style="shape=partialRectangle;connectable=0;fillColor=none;top=0;left=0;bottom=0;right=0;editable=1;overflow=hidden;whiteSpace=wrap;html=1;strokeColor=#E07A5F;fontColor=#393C56;" vertex="1" parent="IFY6uD7Rp_7liyDfAHqy-68">
          <mxGeometry width="30" height="30" as="geometry">
            <mxRectangle width="30" height="30" as="alternateBounds" />
          </mxGeometry>
        </mxCell>
        <mxCell id="IFY6uD7Rp_7liyDfAHqy-70" value="thumbnail" style="shape=partialRectangle;connectable=0;fillColor=none;top=0;left=0;bottom=0;right=0;align=left;spacingLeft=6;overflow=hidden;whiteSpace=wrap;html=1;strokeColor=#E07A5F;fontColor=#393C56;" vertex="1" parent="IFY6uD7Rp_7liyDfAHqy-68">
          <mxGeometry x="30" width="150" height="30" as="geometry">
            <mxRectangle width="150" height="30" as="alternateBounds" />
          </mxGeometry>
        </mxCell>
        <mxCell id="IFY6uD7Rp_7liyDfAHqy-71" value="" style="shape=tableRow;horizontal=0;startSize=0;swimlaneHead=0;swimlaneBody=0;fillColor=none;collapsible=0;dropTarget=0;points=[[0,0.5],[1,0.5]];portConstraint=eastwest;top=0;left=0;right=0;bottom=0;strokeColor=#E07A5F;fontColor=#393C56;" vertex="1" parent="IFY6uD7Rp_7liyDfAHqy-52">
          <mxGeometry y="180" width="180" height="30" as="geometry" />
        </mxCell>
        <mxCell id="IFY6uD7Rp_7liyDfAHqy-72" value="&lt;span style=&quot;white-space: pre;&quot;&gt;&#x9;&lt;/span&gt;" style="shape=partialRectangle;connectable=0;fillColor=none;top=0;left=0;bottom=0;right=0;editable=1;overflow=hidden;whiteSpace=wrap;html=1;strokeColor=#E07A5F;fontColor=#393C56;" vertex="1" parent="IFY6uD7Rp_7liyDfAHqy-71">
          <mxGeometry width="30" height="30" as="geometry">
            <mxRectangle width="30" height="30" as="alternateBounds" />
          </mxGeometry>
        </mxCell>
        <mxCell id="IFY6uD7Rp_7liyDfAHqy-73" value="hashtag" style="shape=partialRectangle;connectable=0;fillColor=none;top=0;left=0;bottom=0;right=0;align=left;spacingLeft=6;overflow=hidden;whiteSpace=wrap;html=1;strokeColor=#E07A5F;fontColor=#393C56;" vertex="1" parent="IFY6uD7Rp_7liyDfAHqy-71">
          <mxGeometry x="30" width="150" height="30" as="geometry">
            <mxRectangle width="150" height="30" as="alternateBounds" />
          </mxGeometry>
        </mxCell>
        <mxCell id="IFY6uD7Rp_7liyDfAHqy-74" value="" style="shape=tableRow;horizontal=0;startSize=0;swimlaneHead=0;swimlaneBody=0;fillColor=none;collapsible=0;dropTarget=0;points=[[0,0.5],[1,0.5]];portConstraint=eastwest;top=0;left=0;right=0;bottom=0;strokeColor=#E07A5F;fontColor=#393C56;" vertex="1" parent="IFY6uD7Rp_7liyDfAHqy-52">
          <mxGeometry y="210" width="180" height="30" as="geometry" />
        </mxCell>
        <mxCell id="IFY6uD7Rp_7liyDfAHqy-75" value="&lt;span style=&quot;white-space: pre;&quot;&gt;&#x9;&lt;/span&gt;" style="shape=partialRectangle;connectable=0;fillColor=none;top=0;left=0;bottom=0;right=0;editable=1;overflow=hidden;whiteSpace=wrap;html=1;strokeColor=#E07A5F;fontColor=#393C56;" vertex="1" parent="IFY6uD7Rp_7liyDfAHqy-74">
          <mxGeometry width="30" height="30" as="geometry">
            <mxRectangle width="30" height="30" as="alternateBounds" />
          </mxGeometry>
        </mxCell>
        <mxCell id="IFY6uD7Rp_7liyDfAHqy-76" value="desciption" style="shape=partialRectangle;connectable=0;fillColor=none;top=0;left=0;bottom=0;right=0;align=left;spacingLeft=6;overflow=hidden;whiteSpace=wrap;html=1;strokeColor=#E07A5F;fontColor=#393C56;" vertex="1" parent="IFY6uD7Rp_7liyDfAHqy-74">
          <mxGeometry x="30" width="150" height="30" as="geometry">
            <mxRectangle width="150" height="30" as="alternateBounds" />
          </mxGeometry>
        </mxCell>
        <mxCell id="IFY6uD7Rp_7liyDfAHqy-77" value="" style="shape=tableRow;horizontal=0;startSize=0;swimlaneHead=0;swimlaneBody=0;fillColor=none;collapsible=0;dropTarget=0;points=[[0,0.5],[1,0.5]];portConstraint=eastwest;top=0;left=0;right=0;bottom=0;strokeColor=#E07A5F;fontColor=#393C56;" vertex="1" parent="IFY6uD7Rp_7liyDfAHqy-52">
          <mxGeometry y="240" width="180" height="30" as="geometry" />
        </mxCell>
        <mxCell id="IFY6uD7Rp_7liyDfAHqy-78" value="&lt;span style=&quot;white-space: pre;&quot;&gt;&#x9;&lt;/span&gt;" style="shape=partialRectangle;connectable=0;fillColor=none;top=0;left=0;bottom=0;right=0;editable=1;overflow=hidden;whiteSpace=wrap;html=1;strokeColor=#E07A5F;fontColor=#393C56;" vertex="1" parent="IFY6uD7Rp_7liyDfAHqy-77">
          <mxGeometry width="30" height="30" as="geometry">
            <mxRectangle width="30" height="30" as="alternateBounds" />
          </mxGeometry>
        </mxCell>
        <mxCell id="IFY6uD7Rp_7liyDfAHqy-79" value="content" style="shape=partialRectangle;connectable=0;fillColor=none;top=0;left=0;bottom=0;right=0;align=left;spacingLeft=6;overflow=hidden;whiteSpace=wrap;html=1;strokeColor=#E07A5F;fontColor=#393C56;" vertex="1" parent="IFY6uD7Rp_7liyDfAHqy-77">
          <mxGeometry x="30" width="150" height="30" as="geometry">
            <mxRectangle width="150" height="30" as="alternateBounds" />
          </mxGeometry>
        </mxCell>
        <mxCell id="IFY6uD7Rp_7liyDfAHqy-80" value="" style="shape=tableRow;horizontal=0;startSize=0;swimlaneHead=0;swimlaneBody=0;fillColor=none;collapsible=0;dropTarget=0;points=[[0,0.5],[1,0.5]];portConstraint=eastwest;top=0;left=0;right=0;bottom=0;strokeColor=#E07A5F;fontColor=#393C56;" vertex="1" parent="IFY6uD7Rp_7liyDfAHqy-52">
          <mxGeometry y="270" width="180" height="30" as="geometry" />
        </mxCell>
        <mxCell id="IFY6uD7Rp_7liyDfAHqy-81" value="&lt;span style=&quot;white-space: pre;&quot;&gt;&#x9;&lt;/span&gt;" style="shape=partialRectangle;connectable=0;fillColor=none;top=0;left=0;bottom=0;right=0;editable=1;overflow=hidden;whiteSpace=wrap;html=1;strokeColor=#E07A5F;fontColor=#393C56;" vertex="1" parent="IFY6uD7Rp_7liyDfAHqy-80">
          <mxGeometry width="30" height="30" as="geometry">
            <mxRectangle width="30" height="30" as="alternateBounds" />
          </mxGeometry>
        </mxCell>
        <mxCell id="IFY6uD7Rp_7liyDfAHqy-82" value="view" style="shape=partialRectangle;connectable=0;fillColor=none;top=0;left=0;bottom=0;right=0;align=left;spacingLeft=6;overflow=hidden;whiteSpace=wrap;html=1;strokeColor=#E07A5F;fontColor=#393C56;" vertex="1" parent="IFY6uD7Rp_7liyDfAHqy-80">
          <mxGeometry x="30" width="150" height="30" as="geometry">
            <mxRectangle width="150" height="30" as="alternateBounds" />
          </mxGeometry>
        </mxCell>
        <mxCell id="IFY6uD7Rp_7liyDfAHqy-318" value="" style="shape=tableRow;horizontal=0;startSize=0;swimlaneHead=0;swimlaneBody=0;fillColor=none;collapsible=0;dropTarget=0;points=[[0,0.5],[1,0.5]];portConstraint=eastwest;top=0;left=0;right=0;bottom=0;strokeColor=#E07A5F;fontColor=#393C56;" vertex="1" parent="IFY6uD7Rp_7liyDfAHqy-52">
          <mxGeometry y="300" width="180" height="30" as="geometry" />
        </mxCell>
        <mxCell id="IFY6uD7Rp_7liyDfAHqy-319" value="" style="shape=partialRectangle;connectable=0;fillColor=none;top=0;left=0;bottom=0;right=0;editable=1;overflow=hidden;strokeColor=#E07A5F;fontColor=#393C56;" vertex="1" parent="IFY6uD7Rp_7liyDfAHqy-318">
          <mxGeometry width="30" height="30" as="geometry">
            <mxRectangle width="30" height="30" as="alternateBounds" />
          </mxGeometry>
        </mxCell>
        <mxCell id="IFY6uD7Rp_7liyDfAHqy-320" value="sumary" style="shape=partialRectangle;connectable=0;fillColor=none;top=0;left=0;bottom=0;right=0;align=left;spacingLeft=6;overflow=hidden;strokeColor=#E07A5F;fontColor=#393C56;" vertex="1" parent="IFY6uD7Rp_7liyDfAHqy-318">
          <mxGeometry x="30" width="150" height="30" as="geometry">
            <mxRectangle width="150" height="30" as="alternateBounds" />
          </mxGeometry>
        </mxCell>
        <mxCell id="IFY6uD7Rp_7liyDfAHqy-83" value="" style="shape=tableRow;horizontal=0;startSize=0;swimlaneHead=0;swimlaneBody=0;fillColor=none;collapsible=0;dropTarget=0;points=[[0,0.5],[1,0.5]];portConstraint=eastwest;top=0;left=0;right=0;bottom=0;strokeColor=#E07A5F;fontColor=#393C56;" vertex="1" parent="IFY6uD7Rp_7liyDfAHqy-52">
          <mxGeometry y="330" width="180" height="30" as="geometry" />
        </mxCell>
        <mxCell id="IFY6uD7Rp_7liyDfAHqy-84" value="&lt;span style=&quot;white-space: pre;&quot;&gt;&#x9;&lt;/span&gt;" style="shape=partialRectangle;connectable=0;fillColor=none;top=0;left=0;bottom=0;right=0;editable=1;overflow=hidden;whiteSpace=wrap;html=1;strokeColor=#E07A5F;fontColor=#393C56;" vertex="1" parent="IFY6uD7Rp_7liyDfAHqy-83">
          <mxGeometry width="30" height="30" as="geometry">
            <mxRectangle width="30" height="30" as="alternateBounds" />
          </mxGeometry>
        </mxCell>
        <mxCell id="IFY6uD7Rp_7liyDfAHqy-85" value="duration" style="shape=partialRectangle;connectable=0;fillColor=none;top=0;left=0;bottom=0;right=0;align=left;spacingLeft=6;overflow=hidden;whiteSpace=wrap;html=1;strokeColor=#E07A5F;fontColor=#393C56;" vertex="1" parent="IFY6uD7Rp_7liyDfAHqy-83">
          <mxGeometry x="30" width="150" height="30" as="geometry">
            <mxRectangle width="150" height="30" as="alternateBounds" />
          </mxGeometry>
        </mxCell>
        <mxCell id="IFY6uD7Rp_7liyDfAHqy-213" value="" style="shape=tableRow;horizontal=0;startSize=0;swimlaneHead=0;swimlaneBody=0;fillColor=none;collapsible=0;dropTarget=0;points=[[0,0.5],[1,0.5]];portConstraint=eastwest;top=0;left=0;right=0;bottom=0;strokeColor=#E07A5F;fontColor=#393C56;" vertex="1" parent="IFY6uD7Rp_7liyDfAHqy-52">
          <mxGeometry y="360" width="180" height="30" as="geometry" />
        </mxCell>
        <mxCell id="IFY6uD7Rp_7liyDfAHqy-214" value="FK" style="shape=partialRectangle;connectable=0;fillColor=none;top=0;left=0;bottom=0;right=0;editable=1;overflow=hidden;whiteSpace=wrap;html=1;strokeColor=#E07A5F;fontColor=#393C56;" vertex="1" parent="IFY6uD7Rp_7liyDfAHqy-213">
          <mxGeometry width="30" height="30" as="geometry">
            <mxRectangle width="30" height="30" as="alternateBounds" />
          </mxGeometry>
        </mxCell>
        <mxCell id="IFY6uD7Rp_7liyDfAHqy-215" value="status_id" style="shape=partialRectangle;connectable=0;fillColor=none;top=0;left=0;bottom=0;right=0;align=left;spacingLeft=6;overflow=hidden;whiteSpace=wrap;html=1;strokeColor=#E07A5F;fontColor=#393C56;" vertex="1" parent="IFY6uD7Rp_7liyDfAHqy-213">
          <mxGeometry x="30" width="150" height="30" as="geometry">
            <mxRectangle width="150" height="30" as="alternateBounds" />
          </mxGeometry>
        </mxCell>
        <mxCell id="IFY6uD7Rp_7liyDfAHqy-223" value="" style="shape=tableRow;horizontal=0;startSize=0;swimlaneHead=0;swimlaneBody=0;fillColor=none;collapsible=0;dropTarget=0;points=[[0,0.5],[1,0.5]];portConstraint=eastwest;top=0;left=0;right=0;bottom=0;strokeColor=#E07A5F;fontColor=#393C56;" vertex="1" parent="IFY6uD7Rp_7liyDfAHqy-52">
          <mxGeometry y="390" width="180" height="30" as="geometry" />
        </mxCell>
        <mxCell id="IFY6uD7Rp_7liyDfAHqy-224" value="FK" style="shape=partialRectangle;connectable=0;fillColor=none;top=0;left=0;bottom=0;right=0;editable=1;overflow=hidden;whiteSpace=wrap;html=1;strokeColor=#E07A5F;fontColor=#393C56;" vertex="1" parent="IFY6uD7Rp_7liyDfAHqy-223">
          <mxGeometry width="30" height="30" as="geometry">
            <mxRectangle width="30" height="30" as="alternateBounds" />
          </mxGeometry>
        </mxCell>
        <mxCell id="IFY6uD7Rp_7liyDfAHqy-225" value="user_id" style="shape=partialRectangle;connectable=0;fillColor=none;top=0;left=0;bottom=0;right=0;align=left;spacingLeft=6;overflow=hidden;whiteSpace=wrap;html=1;strokeColor=#E07A5F;fontColor=#393C56;" vertex="1" parent="IFY6uD7Rp_7liyDfAHqy-223">
          <mxGeometry x="30" width="150" height="30" as="geometry">
            <mxRectangle width="150" height="30" as="alternateBounds" />
          </mxGeometry>
        </mxCell>
        <mxCell id="IFY6uD7Rp_7liyDfAHqy-135" value="Status" style="shape=table;startSize=30;container=1;collapsible=1;childLayout=tableLayout;fixedRows=1;rowLines=0;fontStyle=1;align=center;resizeLast=1;html=1;strokeColor=#E07A5F;fontColor=#393C56;fillColor=#F2CC8F;" vertex="1" parent="1">
          <mxGeometry x="394" y="-91" width="180" height="120" as="geometry" />
        </mxCell>
        <mxCell id="IFY6uD7Rp_7liyDfAHqy-136" value="" style="shape=tableRow;horizontal=0;startSize=0;swimlaneHead=0;swimlaneBody=0;fillColor=none;collapsible=0;dropTarget=0;points=[[0,0.5],[1,0.5]];portConstraint=eastwest;top=0;left=0;right=0;bottom=1;strokeColor=#E07A5F;fontColor=#393C56;" vertex="1" parent="IFY6uD7Rp_7liyDfAHqy-135">
          <mxGeometry y="30" width="180" height="30" as="geometry" />
        </mxCell>
        <mxCell id="IFY6uD7Rp_7liyDfAHqy-137" value="PK" style="shape=partialRectangle;connectable=0;fillColor=none;top=0;left=0;bottom=0;right=0;fontStyle=1;overflow=hidden;whiteSpace=wrap;html=1;strokeColor=#E07A5F;fontColor=#393C56;" vertex="1" parent="IFY6uD7Rp_7liyDfAHqy-136">
          <mxGeometry width="30" height="30" as="geometry">
            <mxRectangle width="30" height="30" as="alternateBounds" />
          </mxGeometry>
        </mxCell>
        <mxCell id="IFY6uD7Rp_7liyDfAHqy-138" value="id" style="shape=partialRectangle;connectable=0;fillColor=none;top=0;left=0;bottom=0;right=0;align=left;spacingLeft=6;fontStyle=5;overflow=hidden;whiteSpace=wrap;html=1;strokeColor=#E07A5F;fontColor=#393C56;" vertex="1" parent="IFY6uD7Rp_7liyDfAHqy-136">
          <mxGeometry x="30" width="150" height="30" as="geometry">
            <mxRectangle width="150" height="30" as="alternateBounds" />
          </mxGeometry>
        </mxCell>
        <mxCell id="IFY6uD7Rp_7liyDfAHqy-139" value="" style="shape=tableRow;horizontal=0;startSize=0;swimlaneHead=0;swimlaneBody=0;fillColor=none;collapsible=0;dropTarget=0;points=[[0,0.5],[1,0.5]];portConstraint=eastwest;top=0;left=0;right=0;bottom=0;strokeColor=#E07A5F;fontColor=#393C56;" vertex="1" parent="IFY6uD7Rp_7liyDfAHqy-135">
          <mxGeometry y="60" width="180" height="30" as="geometry" />
        </mxCell>
        <mxCell id="IFY6uD7Rp_7liyDfAHqy-140" value="" style="shape=partialRectangle;connectable=0;fillColor=none;top=0;left=0;bottom=0;right=0;editable=1;overflow=hidden;whiteSpace=wrap;html=1;strokeColor=#E07A5F;fontColor=#393C56;" vertex="1" parent="IFY6uD7Rp_7liyDfAHqy-139">
          <mxGeometry width="30" height="30" as="geometry">
            <mxRectangle width="30" height="30" as="alternateBounds" />
          </mxGeometry>
        </mxCell>
        <mxCell id="IFY6uD7Rp_7liyDfAHqy-141" value="title" style="shape=partialRectangle;connectable=0;fillColor=none;top=0;left=0;bottom=0;right=0;align=left;spacingLeft=6;overflow=hidden;whiteSpace=wrap;html=1;strokeColor=#E07A5F;fontColor=#393C56;" vertex="1" parent="IFY6uD7Rp_7liyDfAHqy-139">
          <mxGeometry x="30" width="150" height="30" as="geometry">
            <mxRectangle width="150" height="30" as="alternateBounds" />
          </mxGeometry>
        </mxCell>
        <mxCell id="IFY6uD7Rp_7liyDfAHqy-142" value="" style="shape=tableRow;horizontal=0;startSize=0;swimlaneHead=0;swimlaneBody=0;fillColor=none;collapsible=0;dropTarget=0;points=[[0,0.5],[1,0.5]];portConstraint=eastwest;top=0;left=0;right=0;bottom=0;strokeColor=#E07A5F;fontColor=#393C56;" vertex="1" parent="IFY6uD7Rp_7liyDfAHqy-135">
          <mxGeometry y="90" width="180" height="30" as="geometry" />
        </mxCell>
        <mxCell id="IFY6uD7Rp_7liyDfAHqy-143" value="" style="shape=partialRectangle;connectable=0;fillColor=none;top=0;left=0;bottom=0;right=0;editable=1;overflow=hidden;whiteSpace=wrap;html=1;strokeColor=#E07A5F;fontColor=#393C56;" vertex="1" parent="IFY6uD7Rp_7liyDfAHqy-142">
          <mxGeometry width="30" height="30" as="geometry">
            <mxRectangle width="30" height="30" as="alternateBounds" />
          </mxGeometry>
        </mxCell>
        <mxCell id="IFY6uD7Rp_7liyDfAHqy-144" value="value" style="shape=partialRectangle;connectable=0;fillColor=none;top=0;left=0;bottom=0;right=0;align=left;spacingLeft=6;overflow=hidden;whiteSpace=wrap;html=1;strokeColor=#E07A5F;fontColor=#393C56;" vertex="1" parent="IFY6uD7Rp_7liyDfAHqy-142">
          <mxGeometry x="30" width="150" height="30" as="geometry">
            <mxRectangle width="150" height="30" as="alternateBounds" />
          </mxGeometry>
        </mxCell>
        <mxCell id="IFY6uD7Rp_7liyDfAHqy-226" value="User" style="shape=table;startSize=30;container=1;collapsible=1;childLayout=tableLayout;fixedRows=1;rowLines=0;fontStyle=1;align=center;resizeLast=1;html=1;strokeColor=#E07A5F;fontColor=#393C56;fillColor=#F2CC8F;" vertex="1" parent="1">
          <mxGeometry x="910" y="-126" width="180" height="455" as="geometry" />
        </mxCell>
        <mxCell id="IFY6uD7Rp_7liyDfAHqy-227" value="" style="shape=tableRow;horizontal=0;startSize=0;swimlaneHead=0;swimlaneBody=0;fillColor=none;collapsible=0;dropTarget=0;points=[[0,0.5],[1,0.5]];portConstraint=eastwest;top=0;left=0;right=0;bottom=1;strokeColor=#E07A5F;fontColor=#393C56;" vertex="1" parent="IFY6uD7Rp_7liyDfAHqy-226">
          <mxGeometry y="30" width="180" height="30" as="geometry" />
        </mxCell>
        <mxCell id="IFY6uD7Rp_7liyDfAHqy-228" value="PK" style="shape=partialRectangle;connectable=0;fillColor=none;top=0;left=0;bottom=0;right=0;fontStyle=1;overflow=hidden;whiteSpace=wrap;html=1;strokeColor=#E07A5F;fontColor=#393C56;" vertex="1" parent="IFY6uD7Rp_7liyDfAHqy-227">
          <mxGeometry width="30" height="30" as="geometry">
            <mxRectangle width="30" height="30" as="alternateBounds" />
          </mxGeometry>
        </mxCell>
        <mxCell id="IFY6uD7Rp_7liyDfAHqy-229" value="id" style="shape=partialRectangle;connectable=0;fillColor=none;top=0;left=0;bottom=0;right=0;align=left;spacingLeft=6;fontStyle=5;overflow=hidden;whiteSpace=wrap;html=1;strokeColor=#E07A5F;fontColor=#393C56;" vertex="1" parent="IFY6uD7Rp_7liyDfAHqy-227">
          <mxGeometry x="30" width="150" height="30" as="geometry">
            <mxRectangle width="150" height="30" as="alternateBounds" />
          </mxGeometry>
        </mxCell>
        <mxCell id="IFY6uD7Rp_7liyDfAHqy-230" value="" style="shape=tableRow;horizontal=0;startSize=0;swimlaneHead=0;swimlaneBody=0;fillColor=none;collapsible=0;dropTarget=0;points=[[0,0.5],[1,0.5]];portConstraint=eastwest;top=0;left=0;right=0;bottom=0;strokeColor=#E07A5F;fontColor=#393C56;" vertex="1" parent="IFY6uD7Rp_7liyDfAHqy-226">
          <mxGeometry y="60" width="180" height="30" as="geometry" />
        </mxCell>
        <mxCell id="IFY6uD7Rp_7liyDfAHqy-231" value="" style="shape=partialRectangle;connectable=0;fillColor=none;top=0;left=0;bottom=0;right=0;editable=1;overflow=hidden;whiteSpace=wrap;html=1;strokeColor=#E07A5F;fontColor=#393C56;" vertex="1" parent="IFY6uD7Rp_7liyDfAHqy-230">
          <mxGeometry width="30" height="30" as="geometry">
            <mxRectangle width="30" height="30" as="alternateBounds" />
          </mxGeometry>
        </mxCell>
        <mxCell id="IFY6uD7Rp_7liyDfAHqy-232" value="first_name" style="shape=partialRectangle;connectable=0;fillColor=none;top=0;left=0;bottom=0;right=0;align=left;spacingLeft=6;overflow=hidden;whiteSpace=wrap;html=1;strokeColor=#E07A5F;fontColor=#393C56;" vertex="1" parent="IFY6uD7Rp_7liyDfAHqy-230">
          <mxGeometry x="30" width="150" height="30" as="geometry">
            <mxRectangle width="150" height="30" as="alternateBounds" />
          </mxGeometry>
        </mxCell>
        <mxCell id="IFY6uD7Rp_7liyDfAHqy-233" value="" style="shape=tableRow;horizontal=0;startSize=0;swimlaneHead=0;swimlaneBody=0;fillColor=none;collapsible=0;dropTarget=0;points=[[0,0.5],[1,0.5]];portConstraint=eastwest;top=0;left=0;right=0;bottom=0;strokeColor=#E07A5F;fontColor=#393C56;" vertex="1" parent="IFY6uD7Rp_7liyDfAHqy-226">
          <mxGeometry y="90" width="180" height="30" as="geometry" />
        </mxCell>
        <mxCell id="IFY6uD7Rp_7liyDfAHqy-234" value="" style="shape=partialRectangle;connectable=0;fillColor=none;top=0;left=0;bottom=0;right=0;editable=1;overflow=hidden;whiteSpace=wrap;html=1;strokeColor=#E07A5F;fontColor=#393C56;" vertex="1" parent="IFY6uD7Rp_7liyDfAHqy-233">
          <mxGeometry width="30" height="30" as="geometry">
            <mxRectangle width="30" height="30" as="alternateBounds" />
          </mxGeometry>
        </mxCell>
        <mxCell id="IFY6uD7Rp_7liyDfAHqy-235" value="last_name" style="shape=partialRectangle;connectable=0;fillColor=none;top=0;left=0;bottom=0;right=0;align=left;spacingLeft=6;overflow=hidden;whiteSpace=wrap;html=1;strokeColor=#E07A5F;fontColor=#393C56;" vertex="1" parent="IFY6uD7Rp_7liyDfAHqy-233">
          <mxGeometry x="30" width="150" height="30" as="geometry">
            <mxRectangle width="150" height="30" as="alternateBounds" />
          </mxGeometry>
        </mxCell>
        <mxCell id="IFY6uD7Rp_7liyDfAHqy-236" value="" style="shape=tableRow;horizontal=0;startSize=0;swimlaneHead=0;swimlaneBody=0;fillColor=none;collapsible=0;dropTarget=0;points=[[0,0.5],[1,0.5]];portConstraint=eastwest;top=0;left=0;right=0;bottom=0;strokeColor=#E07A5F;fontColor=#393C56;" vertex="1" parent="IFY6uD7Rp_7liyDfAHqy-226">
          <mxGeometry y="120" width="180" height="30" as="geometry" />
        </mxCell>
        <mxCell id="IFY6uD7Rp_7liyDfAHqy-237" value="" style="shape=partialRectangle;connectable=0;fillColor=none;top=0;left=0;bottom=0;right=0;editable=1;overflow=hidden;whiteSpace=wrap;html=1;strokeColor=#E07A5F;fontColor=#393C56;" vertex="1" parent="IFY6uD7Rp_7liyDfAHqy-236">
          <mxGeometry width="30" height="30" as="geometry">
            <mxRectangle width="30" height="30" as="alternateBounds" />
          </mxGeometry>
        </mxCell>
        <mxCell id="IFY6uD7Rp_7liyDfAHqy-238" value="birthday" style="shape=partialRectangle;connectable=0;fillColor=none;top=0;left=0;bottom=0;right=0;align=left;spacingLeft=6;overflow=hidden;whiteSpace=wrap;html=1;strokeColor=#E07A5F;fontColor=#393C56;" vertex="1" parent="IFY6uD7Rp_7liyDfAHqy-236">
          <mxGeometry x="30" width="150" height="30" as="geometry">
            <mxRectangle width="150" height="30" as="alternateBounds" />
          </mxGeometry>
        </mxCell>
        <mxCell id="IFY6uD7Rp_7liyDfAHqy-239" value="" style="shape=tableRow;horizontal=0;startSize=0;swimlaneHead=0;swimlaneBody=0;fillColor=none;collapsible=0;dropTarget=0;points=[[0,0.5],[1,0.5]];portConstraint=eastwest;top=0;left=0;right=0;bottom=0;strokeColor=#E07A5F;fontColor=#393C56;" vertex="1" parent="IFY6uD7Rp_7liyDfAHqy-226">
          <mxGeometry y="150" width="180" height="30" as="geometry" />
        </mxCell>
        <mxCell id="IFY6uD7Rp_7liyDfAHqy-240" value="" style="shape=partialRectangle;connectable=0;fillColor=none;top=0;left=0;bottom=0;right=0;editable=1;overflow=hidden;whiteSpace=wrap;html=1;strokeColor=#E07A5F;fontColor=#393C56;" vertex="1" parent="IFY6uD7Rp_7liyDfAHqy-239">
          <mxGeometry width="30" height="30" as="geometry">
            <mxRectangle width="30" height="30" as="alternateBounds" />
          </mxGeometry>
        </mxCell>
        <mxCell id="IFY6uD7Rp_7liyDfAHqy-241" value="slogan" style="shape=partialRectangle;connectable=0;fillColor=none;top=0;left=0;bottom=0;right=0;align=left;spacingLeft=6;overflow=hidden;whiteSpace=wrap;html=1;strokeColor=#E07A5F;fontColor=#393C56;" vertex="1" parent="IFY6uD7Rp_7liyDfAHqy-239">
          <mxGeometry x="30" width="150" height="30" as="geometry">
            <mxRectangle width="150" height="30" as="alternateBounds" />
          </mxGeometry>
        </mxCell>
        <mxCell id="IFY6uD7Rp_7liyDfAHqy-242" value="" style="shape=tableRow;horizontal=0;startSize=0;swimlaneHead=0;swimlaneBody=0;fillColor=none;collapsible=0;dropTarget=0;points=[[0,0.5],[1,0.5]];portConstraint=eastwest;top=0;left=0;right=0;bottom=0;strokeColor=#E07A5F;fontColor=#393C56;" vertex="1" parent="IFY6uD7Rp_7liyDfAHqy-226">
          <mxGeometry y="180" width="180" height="30" as="geometry" />
        </mxCell>
        <mxCell id="IFY6uD7Rp_7liyDfAHqy-243" value="" style="shape=partialRectangle;connectable=0;fillColor=none;top=0;left=0;bottom=0;right=0;editable=1;overflow=hidden;whiteSpace=wrap;html=1;strokeColor=#E07A5F;fontColor=#393C56;" vertex="1" parent="IFY6uD7Rp_7liyDfAHqy-242">
          <mxGeometry width="30" height="30" as="geometry">
            <mxRectangle width="30" height="30" as="alternateBounds" />
          </mxGeometry>
        </mxCell>
        <mxCell id="IFY6uD7Rp_7liyDfAHqy-244" value="key_gpt" style="shape=partialRectangle;connectable=0;fillColor=none;top=0;left=0;bottom=0;right=0;align=left;spacingLeft=6;overflow=hidden;whiteSpace=wrap;html=1;strokeColor=#E07A5F;fontColor=#393C56;" vertex="1" parent="IFY6uD7Rp_7liyDfAHqy-242">
          <mxGeometry x="30" width="150" height="30" as="geometry">
            <mxRectangle width="150" height="30" as="alternateBounds" />
          </mxGeometry>
        </mxCell>
        <mxCell id="IFY6uD7Rp_7liyDfAHqy-245" value="" style="shape=tableRow;horizontal=0;startSize=0;swimlaneHead=0;swimlaneBody=0;fillColor=none;collapsible=0;dropTarget=0;points=[[0,0.5],[1,0.5]];portConstraint=eastwest;top=0;left=0;right=0;bottom=0;strokeColor=#E07A5F;fontColor=#393C56;" vertex="1" parent="IFY6uD7Rp_7liyDfAHqy-226">
          <mxGeometry y="210" width="180" height="30" as="geometry" />
        </mxCell>
        <mxCell id="IFY6uD7Rp_7liyDfAHqy-246" value="" style="shape=partialRectangle;connectable=0;fillColor=none;top=0;left=0;bottom=0;right=0;editable=1;overflow=hidden;whiteSpace=wrap;html=1;strokeColor=#E07A5F;fontColor=#393C56;" vertex="1" parent="IFY6uD7Rp_7liyDfAHqy-245">
          <mxGeometry width="30" height="30" as="geometry">
            <mxRectangle width="30" height="30" as="alternateBounds" />
          </mxGeometry>
        </mxCell>
        <mxCell id="IFY6uD7Rp_7liyDfAHqy-247" value="date_create" style="shape=partialRectangle;connectable=0;fillColor=none;top=0;left=0;bottom=0;right=0;align=left;spacingLeft=6;overflow=hidden;whiteSpace=wrap;html=1;strokeColor=#E07A5F;fontColor=#393C56;" vertex="1" parent="IFY6uD7Rp_7liyDfAHqy-245">
          <mxGeometry x="30" width="150" height="30" as="geometry">
            <mxRectangle width="150" height="30" as="alternateBounds" />
          </mxGeometry>
        </mxCell>
        <mxCell id="IFY6uD7Rp_7liyDfAHqy-329" value="" style="shape=tableRow;horizontal=0;startSize=0;swimlaneHead=0;swimlaneBody=0;fillColor=none;collapsible=0;dropTarget=0;points=[[0,0.5],[1,0.5]];portConstraint=eastwest;top=0;left=0;right=0;bottom=0;strokeColor=#E07A5F;fontColor=#393C56;" vertex="1" parent="IFY6uD7Rp_7liyDfAHqy-226">
          <mxGeometry y="240" width="180" height="30" as="geometry" />
        </mxCell>
        <mxCell id="IFY6uD7Rp_7liyDfAHqy-330" value="" style="shape=partialRectangle;connectable=0;fillColor=none;top=0;left=0;bottom=0;right=0;editable=1;overflow=hidden;whiteSpace=wrap;html=1;strokeColor=#E07A5F;fontColor=#393C56;" vertex="1" parent="IFY6uD7Rp_7liyDfAHqy-329">
          <mxGeometry width="30" height="30" as="geometry">
            <mxRectangle width="30" height="30" as="alternateBounds" />
          </mxGeometry>
        </mxCell>
        <mxCell id="IFY6uD7Rp_7liyDfAHqy-331" value="avarta" style="shape=partialRectangle;connectable=0;fillColor=none;top=0;left=0;bottom=0;right=0;align=left;spacingLeft=6;overflow=hidden;whiteSpace=wrap;html=1;strokeColor=#E07A5F;fontColor=#393C56;" vertex="1" parent="IFY6uD7Rp_7liyDfAHqy-329">
          <mxGeometry x="30" width="150" height="30" as="geometry">
            <mxRectangle width="150" height="30" as="alternateBounds" />
          </mxGeometry>
        </mxCell>
        <mxCell id="IFY6uD7Rp_7liyDfAHqy-444" value="" style="shape=tableRow;horizontal=0;startSize=0;swimlaneHead=0;swimlaneBody=0;fillColor=none;collapsible=0;dropTarget=0;points=[[0,0.5],[1,0.5]];portConstraint=eastwest;top=0;left=0;right=0;bottom=0;strokeColor=#E07A5F;fontColor=#393C56;" vertex="1" parent="IFY6uD7Rp_7liyDfAHqy-226">
          <mxGeometry y="270" width="180" height="30" as="geometry" />
        </mxCell>
        <mxCell id="IFY6uD7Rp_7liyDfAHqy-445" value="" style="shape=partialRectangle;connectable=0;fillColor=none;top=0;left=0;bottom=0;right=0;editable=1;overflow=hidden;whiteSpace=wrap;html=1;strokeColor=#E07A5F;fontColor=#393C56;" vertex="1" parent="IFY6uD7Rp_7liyDfAHqy-444">
          <mxGeometry width="30" height="30" as="geometry">
            <mxRectangle width="30" height="30" as="alternateBounds" />
          </mxGeometry>
        </mxCell>
        <mxCell id="IFY6uD7Rp_7liyDfAHqy-446" value="email" style="shape=partialRectangle;connectable=0;fillColor=none;top=0;left=0;bottom=0;right=0;align=left;spacingLeft=6;overflow=hidden;whiteSpace=wrap;html=1;strokeColor=#E07A5F;fontColor=#393C56;" vertex="1" parent="IFY6uD7Rp_7liyDfAHqy-444">
          <mxGeometry x="30" width="150" height="30" as="geometry">
            <mxRectangle width="150" height="30" as="alternateBounds" />
          </mxGeometry>
        </mxCell>
        <mxCell id="IFY6uD7Rp_7liyDfAHqy-447" value="" style="shape=tableRow;horizontal=0;startSize=0;swimlaneHead=0;swimlaneBody=0;fillColor=none;collapsible=0;dropTarget=0;points=[[0,0.5],[1,0.5]];portConstraint=eastwest;top=0;left=0;right=0;bottom=0;strokeColor=#E07A5F;fontColor=#393C56;" vertex="1" parent="IFY6uD7Rp_7liyDfAHqy-226">
          <mxGeometry y="300" width="180" height="30" as="geometry" />
        </mxCell>
        <mxCell id="IFY6uD7Rp_7liyDfAHqy-448" value="" style="shape=partialRectangle;connectable=0;fillColor=none;top=0;left=0;bottom=0;right=0;editable=1;overflow=hidden;whiteSpace=wrap;html=1;strokeColor=#E07A5F;fontColor=#393C56;" vertex="1" parent="IFY6uD7Rp_7liyDfAHqy-447">
          <mxGeometry width="30" height="30" as="geometry">
            <mxRectangle width="30" height="30" as="alternateBounds" />
          </mxGeometry>
        </mxCell>
        <mxCell id="IFY6uD7Rp_7liyDfAHqy-449" value="phone_number" style="shape=partialRectangle;connectable=0;fillColor=none;top=0;left=0;bottom=0;right=0;align=left;spacingLeft=6;overflow=hidden;whiteSpace=wrap;html=1;strokeColor=#E07A5F;fontColor=#393C56;" vertex="1" parent="IFY6uD7Rp_7liyDfAHqy-447">
          <mxGeometry x="30" width="150" height="30" as="geometry">
            <mxRectangle width="150" height="30" as="alternateBounds" />
          </mxGeometry>
        </mxCell>
        <mxCell id="IFY6uD7Rp_7liyDfAHqy-549" value="" style="shape=tableRow;horizontal=0;startSize=0;swimlaneHead=0;swimlaneBody=0;fillColor=none;collapsible=0;dropTarget=0;points=[[0,0.5],[1,0.5]];portConstraint=eastwest;top=0;left=0;right=0;bottom=0;strokeColor=#E07A5F;fontColor=#393C56;" vertex="1" parent="IFY6uD7Rp_7liyDfAHqy-226">
          <mxGeometry y="330" width="180" height="30" as="geometry" />
        </mxCell>
        <mxCell id="IFY6uD7Rp_7liyDfAHqy-550" value="" style="shape=partialRectangle;connectable=0;fillColor=none;top=0;left=0;bottom=0;right=0;editable=1;overflow=hidden;strokeColor=#E07A5F;fontColor=#393C56;" vertex="1" parent="IFY6uD7Rp_7liyDfAHqy-549">
          <mxGeometry width="30" height="30" as="geometry">
            <mxRectangle width="30" height="30" as="alternateBounds" />
          </mxGeometry>
        </mxCell>
        <mxCell id="IFY6uD7Rp_7liyDfAHqy-551" value="start" style="shape=partialRectangle;connectable=0;fillColor=none;top=0;left=0;bottom=0;right=0;align=left;spacingLeft=6;overflow=hidden;strokeColor=#E07A5F;fontColor=#393C56;" vertex="1" parent="IFY6uD7Rp_7liyDfAHqy-549">
          <mxGeometry x="30" width="150" height="30" as="geometry">
            <mxRectangle width="150" height="30" as="alternateBounds" />
          </mxGeometry>
        </mxCell>
        <mxCell id="IFY6uD7Rp_7liyDfAHqy-628" value="" style="shape=tableRow;horizontal=0;startSize=0;swimlaneHead=0;swimlaneBody=0;fillColor=none;collapsible=0;dropTarget=0;points=[[0,0.5],[1,0.5]];portConstraint=eastwest;top=0;left=0;right=0;bottom=0;strokeColor=#E07A5F;fontColor=#393C56;" vertex="1" parent="IFY6uD7Rp_7liyDfAHqy-226">
          <mxGeometry y="360" width="180" height="30" as="geometry" />
        </mxCell>
        <mxCell id="IFY6uD7Rp_7liyDfAHqy-629" value="" style="shape=partialRectangle;connectable=0;fillColor=none;top=0;left=0;bottom=0;right=0;fontStyle=0;overflow=hidden;whiteSpace=wrap;html=1;strokeColor=#E07A5F;fontColor=#393C56;" vertex="1" parent="IFY6uD7Rp_7liyDfAHqy-628">
          <mxGeometry width="30" height="30" as="geometry">
            <mxRectangle width="30" height="30" as="alternateBounds" />
          </mxGeometry>
        </mxCell>
        <mxCell id="IFY6uD7Rp_7liyDfAHqy-630" value="hashtag" style="shape=partialRectangle;connectable=0;fillColor=none;top=0;left=0;bottom=0;right=0;align=left;spacingLeft=6;fontStyle=0;overflow=hidden;whiteSpace=wrap;html=1;strokeColor=#E07A5F;fontColor=#393C56;" vertex="1" parent="IFY6uD7Rp_7liyDfAHqy-628">
          <mxGeometry x="30" width="150" height="30" as="geometry">
            <mxRectangle width="150" height="30" as="alternateBounds" />
          </mxGeometry>
        </mxCell>
        <mxCell id="IFY6uD7Rp_7liyDfAHqy-248" value="" style="shape=tableRow;horizontal=0;startSize=0;swimlaneHead=0;swimlaneBody=0;fillColor=none;collapsible=0;dropTarget=0;points=[[0,0.5],[1,0.5]];portConstraint=eastwest;top=0;left=0;right=0;bottom=0;strokeColor=#E07A5F;fontColor=#393C56;" vertex="1" parent="IFY6uD7Rp_7liyDfAHqy-226">
          <mxGeometry y="390" width="180" height="30" as="geometry" />
        </mxCell>
        <mxCell id="IFY6uD7Rp_7liyDfAHqy-249" value="FK" style="shape=partialRectangle;connectable=0;fillColor=none;top=0;left=0;bottom=0;right=0;editable=1;overflow=hidden;whiteSpace=wrap;html=1;strokeColor=#E07A5F;fontColor=#393C56;" vertex="1" parent="IFY6uD7Rp_7liyDfAHqy-248">
          <mxGeometry width="30" height="30" as="geometry">
            <mxRectangle width="30" height="30" as="alternateBounds" />
          </mxGeometry>
        </mxCell>
        <mxCell id="IFY6uD7Rp_7liyDfAHqy-250" value="status_id" style="shape=partialRectangle;connectable=0;fillColor=none;top=0;left=0;bottom=0;right=0;align=left;spacingLeft=6;overflow=hidden;whiteSpace=wrap;html=1;strokeColor=#E07A5F;fontColor=#393C56;" vertex="1" parent="IFY6uD7Rp_7liyDfAHqy-248">
          <mxGeometry x="30" width="150" height="30" as="geometry">
            <mxRectangle width="150" height="30" as="alternateBounds" />
          </mxGeometry>
        </mxCell>
        <mxCell id="IFY6uD7Rp_7liyDfAHqy-251" value="" style="shape=tableRow;horizontal=0;startSize=0;swimlaneHead=0;swimlaneBody=0;fillColor=none;collapsible=0;dropTarget=0;points=[[0,0.5],[1,0.5]];portConstraint=eastwest;top=0;left=0;right=0;bottom=0;strokeColor=#E07A5F;fontColor=#393C56;" vertex="1" parent="IFY6uD7Rp_7liyDfAHqy-226">
          <mxGeometry y="420" width="180" height="35" as="geometry" />
        </mxCell>
        <mxCell id="IFY6uD7Rp_7liyDfAHqy-252" value="FK" style="shape=partialRectangle;connectable=0;fillColor=none;top=0;left=0;bottom=0;right=0;editable=1;overflow=hidden;whiteSpace=wrap;html=1;strokeColor=#E07A5F;fontColor=#393C56;" vertex="1" parent="IFY6uD7Rp_7liyDfAHqy-251">
          <mxGeometry width="30" height="35" as="geometry">
            <mxRectangle width="30" height="35" as="alternateBounds" />
          </mxGeometry>
        </mxCell>
        <mxCell id="IFY6uD7Rp_7liyDfAHqy-253" value="setting_id" style="shape=partialRectangle;connectable=0;fillColor=none;top=0;left=0;bottom=0;right=0;align=left;spacingLeft=6;overflow=hidden;whiteSpace=wrap;html=1;strokeColor=#E07A5F;fontColor=#393C56;" vertex="1" parent="IFY6uD7Rp_7liyDfAHqy-251">
          <mxGeometry x="30" width="150" height="35" as="geometry">
            <mxRectangle width="150" height="35" as="alternateBounds" />
          </mxGeometry>
        </mxCell>
        <mxCell id="IFY6uD7Rp_7liyDfAHqy-267" value="Task" style="shape=table;startSize=30;container=1;collapsible=1;childLayout=tableLayout;fixedRows=1;rowLines=0;fontStyle=1;align=center;resizeLast=1;html=1;strokeColor=#E07A5F;fontColor=#393C56;fillColor=#F2CC8F;" vertex="1" parent="1">
          <mxGeometry x="121" y="-155" width="180" height="240" as="geometry" />
        </mxCell>
        <mxCell id="IFY6uD7Rp_7liyDfAHqy-268" value="" style="shape=tableRow;horizontal=0;startSize=0;swimlaneHead=0;swimlaneBody=0;fillColor=none;collapsible=0;dropTarget=0;points=[[0,0.5],[1,0.5]];portConstraint=eastwest;top=0;left=0;right=0;bottom=1;strokeColor=#E07A5F;fontColor=#393C56;" vertex="1" parent="IFY6uD7Rp_7liyDfAHqy-267">
          <mxGeometry y="30" width="180" height="30" as="geometry" />
        </mxCell>
        <mxCell id="IFY6uD7Rp_7liyDfAHqy-269" value="PK" style="shape=partialRectangle;connectable=0;fillColor=none;top=0;left=0;bottom=0;right=0;fontStyle=1;overflow=hidden;whiteSpace=wrap;html=1;strokeColor=#E07A5F;fontColor=#393C56;" vertex="1" parent="IFY6uD7Rp_7liyDfAHqy-268">
          <mxGeometry width="30" height="30" as="geometry">
            <mxRectangle width="30" height="30" as="alternateBounds" />
          </mxGeometry>
        </mxCell>
        <mxCell id="IFY6uD7Rp_7liyDfAHqy-270" value="id" style="shape=partialRectangle;connectable=0;fillColor=none;top=0;left=0;bottom=0;right=0;align=left;spacingLeft=6;fontStyle=5;overflow=hidden;whiteSpace=wrap;html=1;strokeColor=#E07A5F;fontColor=#393C56;" vertex="1" parent="IFY6uD7Rp_7liyDfAHqy-268">
          <mxGeometry x="30" width="150" height="30" as="geometry">
            <mxRectangle width="150" height="30" as="alternateBounds" />
          </mxGeometry>
        </mxCell>
        <mxCell id="IFY6uD7Rp_7liyDfAHqy-271" value="" style="shape=tableRow;horizontal=0;startSize=0;swimlaneHead=0;swimlaneBody=0;fillColor=none;collapsible=0;dropTarget=0;points=[[0,0.5],[1,0.5]];portConstraint=eastwest;top=0;left=0;right=0;bottom=0;strokeColor=#E07A5F;fontColor=#393C56;" vertex="1" parent="IFY6uD7Rp_7liyDfAHqy-267">
          <mxGeometry y="60" width="180" height="30" as="geometry" />
        </mxCell>
        <mxCell id="IFY6uD7Rp_7liyDfAHqy-272" value="" style="shape=partialRectangle;connectable=0;fillColor=none;top=0;left=0;bottom=0;right=0;editable=1;overflow=hidden;whiteSpace=wrap;html=1;strokeColor=#E07A5F;fontColor=#393C56;" vertex="1" parent="IFY6uD7Rp_7liyDfAHqy-271">
          <mxGeometry width="30" height="30" as="geometry">
            <mxRectangle width="30" height="30" as="alternateBounds" />
          </mxGeometry>
        </mxCell>
        <mxCell id="IFY6uD7Rp_7liyDfAHqy-273" value="question" style="shape=partialRectangle;connectable=0;fillColor=none;top=0;left=0;bottom=0;right=0;align=left;spacingLeft=6;overflow=hidden;whiteSpace=wrap;html=1;strokeColor=#E07A5F;fontColor=#393C56;" vertex="1" parent="IFY6uD7Rp_7liyDfAHqy-271">
          <mxGeometry x="30" width="150" height="30" as="geometry">
            <mxRectangle width="150" height="30" as="alternateBounds" />
          </mxGeometry>
        </mxCell>
        <mxCell id="IFY6uD7Rp_7liyDfAHqy-274" value="" style="shape=tableRow;horizontal=0;startSize=0;swimlaneHead=0;swimlaneBody=0;fillColor=none;collapsible=0;dropTarget=0;points=[[0,0.5],[1,0.5]];portConstraint=eastwest;top=0;left=0;right=0;bottom=0;strokeColor=#E07A5F;fontColor=#393C56;" vertex="1" parent="IFY6uD7Rp_7liyDfAHqy-267">
          <mxGeometry y="90" width="180" height="30" as="geometry" />
        </mxCell>
        <mxCell id="IFY6uD7Rp_7liyDfAHqy-275" value="" style="shape=partialRectangle;connectable=0;fillColor=none;top=0;left=0;bottom=0;right=0;editable=1;overflow=hidden;whiteSpace=wrap;html=1;strokeColor=#E07A5F;fontColor=#393C56;" vertex="1" parent="IFY6uD7Rp_7liyDfAHqy-274">
          <mxGeometry width="30" height="30" as="geometry">
            <mxRectangle width="30" height="30" as="alternateBounds" />
          </mxGeometry>
        </mxCell>
        <mxCell id="IFY6uD7Rp_7liyDfAHqy-276" value="answer" style="shape=partialRectangle;connectable=0;fillColor=none;top=0;left=0;bottom=0;right=0;align=left;spacingLeft=6;overflow=hidden;whiteSpace=wrap;html=1;strokeColor=#E07A5F;fontColor=#393C56;" vertex="1" parent="IFY6uD7Rp_7liyDfAHqy-274">
          <mxGeometry x="30" width="150" height="30" as="geometry">
            <mxRectangle width="150" height="30" as="alternateBounds" />
          </mxGeometry>
        </mxCell>
        <mxCell id="IFY6uD7Rp_7liyDfAHqy-345" value="" style="shape=tableRow;horizontal=0;startSize=0;swimlaneHead=0;swimlaneBody=0;fillColor=none;collapsible=0;dropTarget=0;points=[[0,0.5],[1,0.5]];portConstraint=eastwest;top=0;left=0;right=0;bottom=0;strokeColor=#E07A5F;fontColor=#393C56;" vertex="1" parent="IFY6uD7Rp_7liyDfAHqy-267">
          <mxGeometry y="120" width="180" height="30" as="geometry" />
        </mxCell>
        <mxCell id="IFY6uD7Rp_7liyDfAHqy-346" value="" style="shape=partialRectangle;connectable=0;fillColor=none;top=0;left=0;bottom=0;right=0;editable=1;overflow=hidden;strokeColor=#E07A5F;fontColor=#393C56;" vertex="1" parent="IFY6uD7Rp_7liyDfAHqy-345">
          <mxGeometry width="30" height="30" as="geometry">
            <mxRectangle width="30" height="30" as="alternateBounds" />
          </mxGeometry>
        </mxCell>
        <mxCell id="IFY6uD7Rp_7liyDfAHqy-347" value="content" style="shape=partialRectangle;connectable=0;fillColor=none;top=0;left=0;bottom=0;right=0;align=left;spacingLeft=6;overflow=hidden;strokeColor=#E07A5F;fontColor=#393C56;" vertex="1" parent="IFY6uD7Rp_7liyDfAHqy-345">
          <mxGeometry x="30" width="150" height="30" as="geometry">
            <mxRectangle width="150" height="30" as="alternateBounds" />
          </mxGeometry>
        </mxCell>
        <mxCell id="IFY6uD7Rp_7liyDfAHqy-277" value="" style="shape=tableRow;horizontal=0;startSize=0;swimlaneHead=0;swimlaneBody=0;fillColor=none;collapsible=0;dropTarget=0;points=[[0,0.5],[1,0.5]];portConstraint=eastwest;top=0;left=0;right=0;bottom=0;strokeColor=#E07A5F;fontColor=#393C56;" vertex="1" parent="IFY6uD7Rp_7liyDfAHqy-267">
          <mxGeometry y="150" width="180" height="30" as="geometry" />
        </mxCell>
        <mxCell id="IFY6uD7Rp_7liyDfAHqy-278" value="FK" style="shape=partialRectangle;connectable=0;fillColor=none;top=0;left=0;bottom=0;right=0;editable=1;overflow=hidden;whiteSpace=wrap;html=1;strokeColor=#E07A5F;fontColor=#393C56;" vertex="1" parent="IFY6uD7Rp_7liyDfAHqy-277">
          <mxGeometry width="30" height="30" as="geometry">
            <mxRectangle width="30" height="30" as="alternateBounds" />
          </mxGeometry>
        </mxCell>
        <mxCell id="IFY6uD7Rp_7liyDfAHqy-279" value="status_id" style="shape=partialRectangle;connectable=0;fillColor=none;top=0;left=0;bottom=0;right=0;align=left;spacingLeft=6;overflow=hidden;whiteSpace=wrap;html=1;strokeColor=#E07A5F;fontColor=#393C56;" vertex="1" parent="IFY6uD7Rp_7liyDfAHqy-277">
          <mxGeometry x="30" width="150" height="30" as="geometry">
            <mxRectangle width="150" height="30" as="alternateBounds" />
          </mxGeometry>
        </mxCell>
        <mxCell id="IFY6uD7Rp_7liyDfAHqy-314" value="" style="shape=tableRow;horizontal=0;startSize=0;swimlaneHead=0;swimlaneBody=0;fillColor=none;collapsible=0;dropTarget=0;points=[[0,0.5],[1,0.5]];portConstraint=eastwest;top=0;left=0;right=0;bottom=0;strokeColor=#E07A5F;fontColor=#393C56;" vertex="1" parent="IFY6uD7Rp_7liyDfAHqy-267">
          <mxGeometry y="180" width="180" height="30" as="geometry" />
        </mxCell>
        <mxCell id="IFY6uD7Rp_7liyDfAHqy-315" value="FK" style="shape=partialRectangle;connectable=0;fillColor=none;top=0;left=0;bottom=0;right=0;editable=1;overflow=hidden;strokeColor=#E07A5F;fontColor=#393C56;" vertex="1" parent="IFY6uD7Rp_7liyDfAHqy-314">
          <mxGeometry width="30" height="30" as="geometry">
            <mxRectangle width="30" height="30" as="alternateBounds" />
          </mxGeometry>
        </mxCell>
        <mxCell id="IFY6uD7Rp_7liyDfAHqy-316" value="importance_id" style="shape=partialRectangle;connectable=0;fillColor=none;top=0;left=0;bottom=0;right=0;align=left;spacingLeft=6;overflow=hidden;strokeColor=#E07A5F;fontColor=#393C56;" vertex="1" parent="IFY6uD7Rp_7liyDfAHqy-314">
          <mxGeometry x="30" width="150" height="30" as="geometry">
            <mxRectangle width="150" height="30" as="alternateBounds" />
          </mxGeometry>
        </mxCell>
        <mxCell id="IFY6uD7Rp_7liyDfAHqy-300" value="" style="shape=tableRow;horizontal=0;startSize=0;swimlaneHead=0;swimlaneBody=0;fillColor=none;collapsible=0;dropTarget=0;points=[[0,0.5],[1,0.5]];portConstraint=eastwest;top=0;left=0;right=0;bottom=0;strokeColor=#E07A5F;fontColor=#393C56;" vertex="1" parent="IFY6uD7Rp_7liyDfAHqy-267">
          <mxGeometry y="210" width="180" height="30" as="geometry" />
        </mxCell>
        <mxCell id="IFY6uD7Rp_7liyDfAHqy-301" value="FK" style="shape=partialRectangle;connectable=0;fillColor=none;top=0;left=0;bottom=0;right=0;editable=1;overflow=hidden;strokeColor=#E07A5F;fontColor=#393C56;" vertex="1" parent="IFY6uD7Rp_7liyDfAHqy-300">
          <mxGeometry width="30" height="30" as="geometry">
            <mxRectangle width="30" height="30" as="alternateBounds" />
          </mxGeometry>
        </mxCell>
        <mxCell id="IFY6uD7Rp_7liyDfAHqy-302" value="blog_id" style="shape=partialRectangle;connectable=0;fillColor=none;top=0;left=0;bottom=0;right=0;align=left;spacingLeft=6;overflow=hidden;strokeColor=#E07A5F;fontColor=#393C56;" vertex="1" parent="IFY6uD7Rp_7liyDfAHqy-300">
          <mxGeometry x="30" width="150" height="30" as="geometry">
            <mxRectangle width="150" height="30" as="alternateBounds" />
          </mxGeometry>
        </mxCell>
        <mxCell id="IFY6uD7Rp_7liyDfAHqy-303" value="importance" style="shape=table;startSize=30;container=1;collapsible=1;childLayout=tableLayout;fixedRows=1;rowLines=0;fontStyle=1;align=center;resizeLast=1;html=1;strokeColor=#E07A5F;fontColor=#393C56;fillColor=#F2CC8F;" vertex="1" parent="1">
          <mxGeometry x="651" y="-98" width="180" height="120" as="geometry" />
        </mxCell>
        <mxCell id="IFY6uD7Rp_7liyDfAHqy-304" value="" style="shape=tableRow;horizontal=0;startSize=0;swimlaneHead=0;swimlaneBody=0;fillColor=none;collapsible=0;dropTarget=0;points=[[0,0.5],[1,0.5]];portConstraint=eastwest;top=0;left=0;right=0;bottom=1;strokeColor=#E07A5F;fontColor=#393C56;" vertex="1" parent="IFY6uD7Rp_7liyDfAHqy-303">
          <mxGeometry y="30" width="180" height="30" as="geometry" />
        </mxCell>
        <mxCell id="IFY6uD7Rp_7liyDfAHqy-305" value="PK" style="shape=partialRectangle;connectable=0;fillColor=none;top=0;left=0;bottom=0;right=0;fontStyle=1;overflow=hidden;whiteSpace=wrap;html=1;strokeColor=#E07A5F;fontColor=#393C56;" vertex="1" parent="IFY6uD7Rp_7liyDfAHqy-304">
          <mxGeometry width="30" height="30" as="geometry">
            <mxRectangle width="30" height="30" as="alternateBounds" />
          </mxGeometry>
        </mxCell>
        <mxCell id="IFY6uD7Rp_7liyDfAHqy-306" value="id" style="shape=partialRectangle;connectable=0;fillColor=none;top=0;left=0;bottom=0;right=0;align=left;spacingLeft=6;fontStyle=5;overflow=hidden;whiteSpace=wrap;html=1;strokeColor=#E07A5F;fontColor=#393C56;" vertex="1" parent="IFY6uD7Rp_7liyDfAHqy-304">
          <mxGeometry x="30" width="150" height="30" as="geometry">
            <mxRectangle width="150" height="30" as="alternateBounds" />
          </mxGeometry>
        </mxCell>
        <mxCell id="IFY6uD7Rp_7liyDfAHqy-307" value="" style="shape=tableRow;horizontal=0;startSize=0;swimlaneHead=0;swimlaneBody=0;fillColor=none;collapsible=0;dropTarget=0;points=[[0,0.5],[1,0.5]];portConstraint=eastwest;top=0;left=0;right=0;bottom=0;strokeColor=#E07A5F;fontColor=#393C56;" vertex="1" parent="IFY6uD7Rp_7liyDfAHqy-303">
          <mxGeometry y="60" width="180" height="30" as="geometry" />
        </mxCell>
        <mxCell id="IFY6uD7Rp_7liyDfAHqy-308" value="" style="shape=partialRectangle;connectable=0;fillColor=none;top=0;left=0;bottom=0;right=0;editable=1;overflow=hidden;whiteSpace=wrap;html=1;strokeColor=#E07A5F;fontColor=#393C56;" vertex="1" parent="IFY6uD7Rp_7liyDfAHqy-307">
          <mxGeometry width="30" height="30" as="geometry">
            <mxRectangle width="30" height="30" as="alternateBounds" />
          </mxGeometry>
        </mxCell>
        <mxCell id="IFY6uD7Rp_7liyDfAHqy-309" value="title" style="shape=partialRectangle;connectable=0;fillColor=none;top=0;left=0;bottom=0;right=0;align=left;spacingLeft=6;overflow=hidden;whiteSpace=wrap;html=1;strokeColor=#E07A5F;fontColor=#393C56;" vertex="1" parent="IFY6uD7Rp_7liyDfAHqy-307">
          <mxGeometry x="30" width="150" height="30" as="geometry">
            <mxRectangle width="150" height="30" as="alternateBounds" />
          </mxGeometry>
        </mxCell>
        <mxCell id="IFY6uD7Rp_7liyDfAHqy-310" value="" style="shape=tableRow;horizontal=0;startSize=0;swimlaneHead=0;swimlaneBody=0;fillColor=none;collapsible=0;dropTarget=0;points=[[0,0.5],[1,0.5]];portConstraint=eastwest;top=0;left=0;right=0;bottom=0;strokeColor=#E07A5F;fontColor=#393C56;" vertex="1" parent="IFY6uD7Rp_7liyDfAHqy-303">
          <mxGeometry y="90" width="180" height="30" as="geometry" />
        </mxCell>
        <mxCell id="IFY6uD7Rp_7liyDfAHqy-311" value="" style="shape=partialRectangle;connectable=0;fillColor=none;top=0;left=0;bottom=0;right=0;editable=1;overflow=hidden;whiteSpace=wrap;html=1;strokeColor=#E07A5F;fontColor=#393C56;" vertex="1" parent="IFY6uD7Rp_7liyDfAHqy-310">
          <mxGeometry width="30" height="30" as="geometry">
            <mxRectangle width="30" height="30" as="alternateBounds" />
          </mxGeometry>
        </mxCell>
        <mxCell id="IFY6uD7Rp_7liyDfAHqy-312" value="value" style="shape=partialRectangle;connectable=0;fillColor=none;top=0;left=0;bottom=0;right=0;align=left;spacingLeft=6;overflow=hidden;whiteSpace=wrap;html=1;strokeColor=#E07A5F;fontColor=#393C56;" vertex="1" parent="IFY6uD7Rp_7liyDfAHqy-310">
          <mxGeometry x="30" width="150" height="30" as="geometry">
            <mxRectangle width="150" height="30" as="alternateBounds" />
          </mxGeometry>
        </mxCell>
        <mxCell id="IFY6uD7Rp_7liyDfAHqy-361" value="Comment" style="shape=table;startSize=30;container=1;collapsible=1;childLayout=tableLayout;fixedRows=1;rowLines=0;fontStyle=1;align=center;resizeLast=1;html=1;strokeColor=#E07A5F;fontColor=#393C56;fillColor=#F2CC8F;" vertex="1" parent="1">
          <mxGeometry x="660" y="75" width="180" height="240" as="geometry" />
        </mxCell>
        <mxCell id="IFY6uD7Rp_7liyDfAHqy-362" value="" style="shape=tableRow;horizontal=0;startSize=0;swimlaneHead=0;swimlaneBody=0;fillColor=none;collapsible=0;dropTarget=0;points=[[0,0.5],[1,0.5]];portConstraint=eastwest;top=0;left=0;right=0;bottom=1;strokeColor=#E07A5F;fontColor=#393C56;" vertex="1" parent="IFY6uD7Rp_7liyDfAHqy-361">
          <mxGeometry y="30" width="180" height="30" as="geometry" />
        </mxCell>
        <mxCell id="IFY6uD7Rp_7liyDfAHqy-363" value="PK" style="shape=partialRectangle;connectable=0;fillColor=none;top=0;left=0;bottom=0;right=0;fontStyle=1;overflow=hidden;whiteSpace=wrap;html=1;strokeColor=#E07A5F;fontColor=#393C56;" vertex="1" parent="IFY6uD7Rp_7liyDfAHqy-362">
          <mxGeometry width="30" height="30" as="geometry">
            <mxRectangle width="30" height="30" as="alternateBounds" />
          </mxGeometry>
        </mxCell>
        <mxCell id="IFY6uD7Rp_7liyDfAHqy-364" value="id" style="shape=partialRectangle;connectable=0;fillColor=none;top=0;left=0;bottom=0;right=0;align=left;spacingLeft=6;fontStyle=5;overflow=hidden;whiteSpace=wrap;html=1;strokeColor=#E07A5F;fontColor=#393C56;" vertex="1" parent="IFY6uD7Rp_7liyDfAHqy-362">
          <mxGeometry x="30" width="150" height="30" as="geometry">
            <mxRectangle width="150" height="30" as="alternateBounds" />
          </mxGeometry>
        </mxCell>
        <mxCell id="IFY6uD7Rp_7liyDfAHqy-365" value="" style="shape=tableRow;horizontal=0;startSize=0;swimlaneHead=0;swimlaneBody=0;fillColor=none;collapsible=0;dropTarget=0;points=[[0,0.5],[1,0.5]];portConstraint=eastwest;top=0;left=0;right=0;bottom=0;strokeColor=#E07A5F;fontColor=#393C56;" vertex="1" parent="IFY6uD7Rp_7liyDfAHqy-361">
          <mxGeometry y="60" width="180" height="30" as="geometry" />
        </mxCell>
        <mxCell id="IFY6uD7Rp_7liyDfAHqy-366" value="Fk" style="shape=partialRectangle;connectable=0;fillColor=none;top=0;left=0;bottom=0;right=0;editable=1;overflow=hidden;whiteSpace=wrap;html=1;strokeColor=#E07A5F;fontColor=#393C56;" vertex="1" parent="IFY6uD7Rp_7liyDfAHqy-365">
          <mxGeometry width="30" height="30" as="geometry">
            <mxRectangle width="30" height="30" as="alternateBounds" />
          </mxGeometry>
        </mxCell>
        <mxCell id="IFY6uD7Rp_7liyDfAHqy-367" value="blog_id" style="shape=partialRectangle;connectable=0;fillColor=none;top=0;left=0;bottom=0;right=0;align=left;spacingLeft=6;overflow=hidden;whiteSpace=wrap;html=1;strokeColor=#E07A5F;fontColor=#393C56;" vertex="1" parent="IFY6uD7Rp_7liyDfAHqy-365">
          <mxGeometry x="30" width="150" height="30" as="geometry">
            <mxRectangle width="150" height="30" as="alternateBounds" />
          </mxGeometry>
        </mxCell>
        <mxCell id="IFY6uD7Rp_7liyDfAHqy-368" value="" style="shape=tableRow;horizontal=0;startSize=0;swimlaneHead=0;swimlaneBody=0;fillColor=none;collapsible=0;dropTarget=0;points=[[0,0.5],[1,0.5]];portConstraint=eastwest;top=0;left=0;right=0;bottom=0;strokeColor=#E07A5F;fontColor=#393C56;" vertex="1" parent="IFY6uD7Rp_7liyDfAHqy-361">
          <mxGeometry y="90" width="180" height="30" as="geometry" />
        </mxCell>
        <mxCell id="IFY6uD7Rp_7liyDfAHqy-369" value="FK" style="shape=partialRectangle;connectable=0;fillColor=none;top=0;left=0;bottom=0;right=0;editable=1;overflow=hidden;whiteSpace=wrap;html=1;strokeColor=#E07A5F;fontColor=#393C56;" vertex="1" parent="IFY6uD7Rp_7liyDfAHqy-368">
          <mxGeometry width="30" height="30" as="geometry">
            <mxRectangle width="30" height="30" as="alternateBounds" />
          </mxGeometry>
        </mxCell>
        <mxCell id="IFY6uD7Rp_7liyDfAHqy-370" value="user_id" style="shape=partialRectangle;connectable=0;fillColor=none;top=0;left=0;bottom=0;right=0;align=left;spacingLeft=6;overflow=hidden;whiteSpace=wrap;html=1;strokeColor=#E07A5F;fontColor=#393C56;" vertex="1" parent="IFY6uD7Rp_7liyDfAHqy-368">
          <mxGeometry x="30" width="150" height="30" as="geometry">
            <mxRectangle width="150" height="30" as="alternateBounds" />
          </mxGeometry>
        </mxCell>
        <mxCell id="IFY6uD7Rp_7liyDfAHqy-371" value="" style="shape=tableRow;horizontal=0;startSize=0;swimlaneHead=0;swimlaneBody=0;fillColor=none;collapsible=0;dropTarget=0;points=[[0,0.5],[1,0.5]];portConstraint=eastwest;top=0;left=0;right=0;bottom=0;strokeColor=#E07A5F;fontColor=#393C56;" vertex="1" parent="IFY6uD7Rp_7liyDfAHqy-361">
          <mxGeometry y="120" width="180" height="30" as="geometry" />
        </mxCell>
        <mxCell id="IFY6uD7Rp_7liyDfAHqy-372" value="" style="shape=partialRectangle;connectable=0;fillColor=none;top=0;left=0;bottom=0;right=0;editable=1;overflow=hidden;whiteSpace=wrap;html=1;strokeColor=#E07A5F;fontColor=#393C56;" vertex="1" parent="IFY6uD7Rp_7liyDfAHqy-371">
          <mxGeometry width="30" height="30" as="geometry">
            <mxRectangle width="30" height="30" as="alternateBounds" />
          </mxGeometry>
        </mxCell>
        <mxCell id="IFY6uD7Rp_7liyDfAHqy-373" value="date_created" style="shape=partialRectangle;connectable=0;fillColor=none;top=0;left=0;bottom=0;right=0;align=left;spacingLeft=6;overflow=hidden;whiteSpace=wrap;html=1;strokeColor=#E07A5F;fontColor=#393C56;" vertex="1" parent="IFY6uD7Rp_7liyDfAHqy-371">
          <mxGeometry x="30" width="150" height="30" as="geometry">
            <mxRectangle width="150" height="30" as="alternateBounds" />
          </mxGeometry>
        </mxCell>
        <mxCell id="IFY6uD7Rp_7liyDfAHqy-374" value="" style="shape=tableRow;horizontal=0;startSize=0;swimlaneHead=0;swimlaneBody=0;fillColor=none;collapsible=0;dropTarget=0;points=[[0,0.5],[1,0.5]];portConstraint=eastwest;top=0;left=0;right=0;bottom=0;strokeColor=#E07A5F;fontColor=#393C56;" vertex="1" parent="IFY6uD7Rp_7liyDfAHqy-361">
          <mxGeometry y="150" width="180" height="30" as="geometry" />
        </mxCell>
        <mxCell id="IFY6uD7Rp_7liyDfAHqy-375" value="" style="shape=partialRectangle;connectable=0;fillColor=none;top=0;left=0;bottom=0;right=0;editable=1;overflow=hidden;whiteSpace=wrap;html=1;strokeColor=#E07A5F;fontColor=#393C56;" vertex="1" parent="IFY6uD7Rp_7liyDfAHqy-374">
          <mxGeometry width="30" height="30" as="geometry">
            <mxRectangle width="30" height="30" as="alternateBounds" />
          </mxGeometry>
        </mxCell>
        <mxCell id="IFY6uD7Rp_7liyDfAHqy-376" value="content" style="shape=partialRectangle;connectable=0;fillColor=none;top=0;left=0;bottom=0;right=0;align=left;spacingLeft=6;overflow=hidden;whiteSpace=wrap;html=1;strokeColor=#E07A5F;fontColor=#393C56;" vertex="1" parent="IFY6uD7Rp_7liyDfAHqy-374">
          <mxGeometry x="30" width="150" height="30" as="geometry">
            <mxRectangle width="150" height="30" as="alternateBounds" />
          </mxGeometry>
        </mxCell>
        <mxCell id="IFY6uD7Rp_7liyDfAHqy-377" value="" style="shape=tableRow;horizontal=0;startSize=0;swimlaneHead=0;swimlaneBody=0;fillColor=none;collapsible=0;dropTarget=0;points=[[0,0.5],[1,0.5]];portConstraint=eastwest;top=0;left=0;right=0;bottom=0;strokeColor=#E07A5F;fontColor=#393C56;" vertex="1" parent="IFY6uD7Rp_7liyDfAHqy-361">
          <mxGeometry y="180" width="180" height="30" as="geometry" />
        </mxCell>
        <mxCell id="IFY6uD7Rp_7liyDfAHqy-378" value="FK" style="shape=partialRectangle;connectable=0;fillColor=none;top=0;left=0;bottom=0;right=0;editable=1;overflow=hidden;whiteSpace=wrap;html=1;strokeColor=#E07A5F;fontColor=#393C56;" vertex="1" parent="IFY6uD7Rp_7liyDfAHqy-377">
          <mxGeometry width="30" height="30" as="geometry">
            <mxRectangle width="30" height="30" as="alternateBounds" />
          </mxGeometry>
        </mxCell>
        <mxCell id="IFY6uD7Rp_7liyDfAHqy-379" value="comment_id" style="shape=partialRectangle;connectable=0;fillColor=none;top=0;left=0;bottom=0;right=0;align=left;spacingLeft=6;overflow=hidden;whiteSpace=wrap;html=1;strokeColor=#E07A5F;fontColor=#393C56;" vertex="1" parent="IFY6uD7Rp_7liyDfAHqy-377">
          <mxGeometry x="30" width="150" height="30" as="geometry">
            <mxRectangle width="150" height="30" as="alternateBounds" />
          </mxGeometry>
        </mxCell>
        <mxCell id="IFY6uD7Rp_7liyDfAHqy-380" value="" style="shape=tableRow;horizontal=0;startSize=0;swimlaneHead=0;swimlaneBody=0;fillColor=none;collapsible=0;dropTarget=0;points=[[0,0.5],[1,0.5]];portConstraint=eastwest;top=0;left=0;right=0;bottom=0;strokeColor=#E07A5F;fontColor=#393C56;" vertex="1" parent="IFY6uD7Rp_7liyDfAHqy-361">
          <mxGeometry y="210" width="180" height="30" as="geometry" />
        </mxCell>
        <mxCell id="IFY6uD7Rp_7liyDfAHqy-381" value="FK" style="shape=partialRectangle;connectable=0;fillColor=none;top=0;left=0;bottom=0;right=0;editable=1;overflow=hidden;whiteSpace=wrap;html=1;strokeColor=#E07A5F;fontColor=#393C56;" vertex="1" parent="IFY6uD7Rp_7liyDfAHqy-380">
          <mxGeometry width="30" height="30" as="geometry">
            <mxRectangle width="30" height="30" as="alternateBounds" />
          </mxGeometry>
        </mxCell>
        <mxCell id="IFY6uD7Rp_7liyDfAHqy-382" value="status_id" style="shape=partialRectangle;connectable=0;fillColor=none;top=0;left=0;bottom=0;right=0;align=left;spacingLeft=6;overflow=hidden;whiteSpace=wrap;html=1;strokeColor=#E07A5F;fontColor=#393C56;" vertex="1" parent="IFY6uD7Rp_7liyDfAHqy-380">
          <mxGeometry x="30" width="150" height="30" as="geometry">
            <mxRectangle width="150" height="30" as="alternateBounds" />
          </mxGeometry>
        </mxCell>
        <mxCell id="IFY6uD7Rp_7liyDfAHqy-396" value="blog_subject" style="shape=table;startSize=30;container=1;collapsible=1;childLayout=tableLayout;fixedRows=1;rowLines=0;fontStyle=1;align=center;resizeLast=1;html=1;whiteSpace=wrap;strokeColor=#E07A5F;fontColor=#393C56;fillColor=#F2CC8F;" vertex="1" parent="1">
          <mxGeometry x="406" y="154" width="180" height="90" as="geometry" />
        </mxCell>
        <mxCell id="IFY6uD7Rp_7liyDfAHqy-397" value="" style="shape=tableRow;horizontal=0;startSize=0;swimlaneHead=0;swimlaneBody=0;fillColor=none;collapsible=0;dropTarget=0;points=[[0,0.5],[1,0.5]];portConstraint=eastwest;top=0;left=0;right=0;bottom=0;html=1;strokeColor=#E07A5F;fontColor=#393C56;" vertex="1" parent="IFY6uD7Rp_7liyDfAHqy-396">
          <mxGeometry y="30" width="180" height="30" as="geometry" />
        </mxCell>
        <mxCell id="IFY6uD7Rp_7liyDfAHqy-398" value="PK,FK1" style="shape=partialRectangle;connectable=0;fillColor=none;top=0;left=0;bottom=0;right=0;fontStyle=1;overflow=hidden;html=1;whiteSpace=wrap;strokeColor=#E07A5F;fontColor=#393C56;" vertex="1" parent="IFY6uD7Rp_7liyDfAHqy-397">
          <mxGeometry width="60" height="30" as="geometry">
            <mxRectangle width="60" height="30" as="alternateBounds" />
          </mxGeometry>
        </mxCell>
        <mxCell id="IFY6uD7Rp_7liyDfAHqy-399" value="blog_id" style="shape=partialRectangle;connectable=0;fillColor=none;top=0;left=0;bottom=0;right=0;align=left;spacingLeft=6;fontStyle=5;overflow=hidden;html=1;whiteSpace=wrap;strokeColor=#E07A5F;fontColor=#393C56;" vertex="1" parent="IFY6uD7Rp_7liyDfAHqy-397">
          <mxGeometry x="60" width="120" height="30" as="geometry">
            <mxRectangle width="120" height="30" as="alternateBounds" />
          </mxGeometry>
        </mxCell>
        <mxCell id="IFY6uD7Rp_7liyDfAHqy-400" value="" style="shape=tableRow;horizontal=0;startSize=0;swimlaneHead=0;swimlaneBody=0;fillColor=none;collapsible=0;dropTarget=0;points=[[0,0.5],[1,0.5]];portConstraint=eastwest;top=0;left=0;right=0;bottom=1;html=1;strokeColor=#E07A5F;fontColor=#393C56;" vertex="1" parent="IFY6uD7Rp_7liyDfAHqy-396">
          <mxGeometry y="60" width="180" height="30" as="geometry" />
        </mxCell>
        <mxCell id="IFY6uD7Rp_7liyDfAHqy-401" value="PK,FK2" style="shape=partialRectangle;connectable=0;fillColor=none;top=0;left=0;bottom=0;right=0;fontStyle=1;overflow=hidden;html=1;whiteSpace=wrap;strokeColor=#E07A5F;fontColor=#393C56;" vertex="1" parent="IFY6uD7Rp_7liyDfAHqy-400">
          <mxGeometry width="60" height="30" as="geometry">
            <mxRectangle width="60" height="30" as="alternateBounds" />
          </mxGeometry>
        </mxCell>
        <mxCell id="IFY6uD7Rp_7liyDfAHqy-402" value="subject_id" style="shape=partialRectangle;connectable=0;fillColor=none;top=0;left=0;bottom=0;right=0;align=left;spacingLeft=6;fontStyle=5;overflow=hidden;html=1;whiteSpace=wrap;strokeColor=#E07A5F;fontColor=#393C56;" vertex="1" parent="IFY6uD7Rp_7liyDfAHqy-400">
          <mxGeometry x="60" width="120" height="30" as="geometry">
            <mxRectangle width="120" height="30" as="alternateBounds" />
          </mxGeometry>
        </mxCell>
        <mxCell id="IFY6uD7Rp_7liyDfAHqy-409" value="Subject" style="shape=table;startSize=30;container=1;collapsible=1;childLayout=tableLayout;fixedRows=1;rowLines=0;fontStyle=1;align=center;resizeLast=1;html=1;strokeColor=#E07A5F;fontColor=#393C56;fillColor=#F2CC8F;" vertex="1" parent="1">
          <mxGeometry x="413" y="357" width="180" height="210" as="geometry" />
        </mxCell>
        <mxCell id="IFY6uD7Rp_7liyDfAHqy-410" value="" style="shape=tableRow;horizontal=0;startSize=0;swimlaneHead=0;swimlaneBody=0;fillColor=none;collapsible=0;dropTarget=0;points=[[0,0.5],[1,0.5]];portConstraint=eastwest;top=0;left=0;right=0;bottom=1;strokeColor=#E07A5F;fontColor=#393C56;" vertex="1" parent="IFY6uD7Rp_7liyDfAHqy-409">
          <mxGeometry y="30" width="180" height="30" as="geometry" />
        </mxCell>
        <mxCell id="IFY6uD7Rp_7liyDfAHqy-411" value="PK" style="shape=partialRectangle;connectable=0;fillColor=none;top=0;left=0;bottom=0;right=0;fontStyle=1;overflow=hidden;whiteSpace=wrap;html=1;strokeColor=#E07A5F;fontColor=#393C56;" vertex="1" parent="IFY6uD7Rp_7liyDfAHqy-410">
          <mxGeometry width="30" height="30" as="geometry">
            <mxRectangle width="30" height="30" as="alternateBounds" />
          </mxGeometry>
        </mxCell>
        <mxCell id="IFY6uD7Rp_7liyDfAHqy-412" value="id" style="shape=partialRectangle;connectable=0;fillColor=none;top=0;left=0;bottom=0;right=0;align=left;spacingLeft=6;fontStyle=5;overflow=hidden;whiteSpace=wrap;html=1;strokeColor=#E07A5F;fontColor=#393C56;" vertex="1" parent="IFY6uD7Rp_7liyDfAHqy-410">
          <mxGeometry x="30" width="150" height="30" as="geometry">
            <mxRectangle width="150" height="30" as="alternateBounds" />
          </mxGeometry>
        </mxCell>
        <mxCell id="IFY6uD7Rp_7liyDfAHqy-413" value="" style="shape=tableRow;horizontal=0;startSize=0;swimlaneHead=0;swimlaneBody=0;fillColor=none;collapsible=0;dropTarget=0;points=[[0,0.5],[1,0.5]];portConstraint=eastwest;top=0;left=0;right=0;bottom=0;strokeColor=#E07A5F;fontColor=#393C56;" vertex="1" parent="IFY6uD7Rp_7liyDfAHqy-409">
          <mxGeometry y="60" width="180" height="30" as="geometry" />
        </mxCell>
        <mxCell id="IFY6uD7Rp_7liyDfAHqy-414" value="" style="shape=partialRectangle;connectable=0;fillColor=none;top=0;left=0;bottom=0;right=0;editable=1;overflow=hidden;whiteSpace=wrap;html=1;strokeColor=#E07A5F;fontColor=#393C56;" vertex="1" parent="IFY6uD7Rp_7liyDfAHqy-413">
          <mxGeometry width="30" height="30" as="geometry">
            <mxRectangle width="30" height="30" as="alternateBounds" />
          </mxGeometry>
        </mxCell>
        <mxCell id="IFY6uD7Rp_7liyDfAHqy-415" value="title" style="shape=partialRectangle;connectable=0;fillColor=none;top=0;left=0;bottom=0;right=0;align=left;spacingLeft=6;overflow=hidden;whiteSpace=wrap;html=1;strokeColor=#E07A5F;fontColor=#393C56;" vertex="1" parent="IFY6uD7Rp_7liyDfAHqy-413">
          <mxGeometry x="30" width="150" height="30" as="geometry">
            <mxRectangle width="150" height="30" as="alternateBounds" />
          </mxGeometry>
        </mxCell>
        <mxCell id="IFY6uD7Rp_7liyDfAHqy-416" value="" style="shape=tableRow;horizontal=0;startSize=0;swimlaneHead=0;swimlaneBody=0;fillColor=none;collapsible=0;dropTarget=0;points=[[0,0.5],[1,0.5]];portConstraint=eastwest;top=0;left=0;right=0;bottom=0;strokeColor=#E07A5F;fontColor=#393C56;" vertex="1" parent="IFY6uD7Rp_7liyDfAHqy-409">
          <mxGeometry y="90" width="180" height="30" as="geometry" />
        </mxCell>
        <mxCell id="IFY6uD7Rp_7liyDfAHqy-417" value="" style="shape=partialRectangle;connectable=0;fillColor=none;top=0;left=0;bottom=0;right=0;editable=1;overflow=hidden;whiteSpace=wrap;html=1;strokeColor=#E07A5F;fontColor=#393C56;" vertex="1" parent="IFY6uD7Rp_7liyDfAHqy-416">
          <mxGeometry width="30" height="30" as="geometry">
            <mxRectangle width="30" height="30" as="alternateBounds" />
          </mxGeometry>
        </mxCell>
        <mxCell id="IFY6uD7Rp_7liyDfAHqy-418" value="value" style="shape=partialRectangle;connectable=0;fillColor=none;top=0;left=0;bottom=0;right=0;align=left;spacingLeft=6;overflow=hidden;whiteSpace=wrap;html=1;strokeColor=#E07A5F;fontColor=#393C56;" vertex="1" parent="IFY6uD7Rp_7liyDfAHqy-416">
          <mxGeometry x="30" width="150" height="30" as="geometry">
            <mxRectangle width="150" height="30" as="alternateBounds" />
          </mxGeometry>
        </mxCell>
        <mxCell id="IFY6uD7Rp_7liyDfAHqy-419" value="" style="shape=tableRow;horizontal=0;startSize=0;swimlaneHead=0;swimlaneBody=0;fillColor=none;collapsible=0;dropTarget=0;points=[[0,0.5],[1,0.5]];portConstraint=eastwest;top=0;left=0;right=0;bottom=0;strokeColor=#E07A5F;fontColor=#393C56;" vertex="1" parent="IFY6uD7Rp_7liyDfAHqy-409">
          <mxGeometry y="120" width="180" height="30" as="geometry" />
        </mxCell>
        <mxCell id="IFY6uD7Rp_7liyDfAHqy-420" value="" style="shape=partialRectangle;connectable=0;fillColor=none;top=0;left=0;bottom=0;right=0;editable=1;overflow=hidden;whiteSpace=wrap;html=1;strokeColor=#E07A5F;fontColor=#393C56;" vertex="1" parent="IFY6uD7Rp_7liyDfAHqy-419">
          <mxGeometry width="30" height="30" as="geometry">
            <mxRectangle width="30" height="30" as="alternateBounds" />
          </mxGeometry>
        </mxCell>
        <mxCell id="IFY6uD7Rp_7liyDfAHqy-421" value="description" style="shape=partialRectangle;connectable=0;fillColor=none;top=0;left=0;bottom=0;right=0;align=left;spacingLeft=6;overflow=hidden;whiteSpace=wrap;html=1;strokeColor=#E07A5F;fontColor=#393C56;" vertex="1" parent="IFY6uD7Rp_7liyDfAHqy-419">
          <mxGeometry x="30" width="150" height="30" as="geometry">
            <mxRectangle width="150" height="30" as="alternateBounds" />
          </mxGeometry>
        </mxCell>
        <mxCell id="IFY6uD7Rp_7liyDfAHqy-422" value="" style="shape=tableRow;horizontal=0;startSize=0;swimlaneHead=0;swimlaneBody=0;fillColor=none;collapsible=0;dropTarget=0;points=[[0,0.5],[1,0.5]];portConstraint=eastwest;top=0;left=0;right=0;bottom=0;strokeColor=#E07A5F;fontColor=#393C56;" vertex="1" parent="IFY6uD7Rp_7liyDfAHqy-409">
          <mxGeometry y="150" width="180" height="30" as="geometry" />
        </mxCell>
        <mxCell id="IFY6uD7Rp_7liyDfAHqy-423" value="" style="shape=partialRectangle;connectable=0;fillColor=none;top=0;left=0;bottom=0;right=0;editable=1;overflow=hidden;whiteSpace=wrap;html=1;strokeColor=#E07A5F;fontColor=#393C56;" vertex="1" parent="IFY6uD7Rp_7liyDfAHqy-422">
          <mxGeometry width="30" height="30" as="geometry">
            <mxRectangle width="30" height="30" as="alternateBounds" />
          </mxGeometry>
        </mxCell>
        <mxCell id="IFY6uD7Rp_7liyDfAHqy-424" value="thumbnail" style="shape=partialRectangle;connectable=0;fillColor=none;top=0;left=0;bottom=0;right=0;align=left;spacingLeft=6;overflow=hidden;whiteSpace=wrap;html=1;strokeColor=#E07A5F;fontColor=#393C56;" vertex="1" parent="IFY6uD7Rp_7liyDfAHqy-422">
          <mxGeometry x="30" width="150" height="30" as="geometry">
            <mxRectangle width="150" height="30" as="alternateBounds" />
          </mxGeometry>
        </mxCell>
        <mxCell id="IFY6uD7Rp_7liyDfAHqy-428" value="" style="shape=tableRow;horizontal=0;startSize=0;swimlaneHead=0;swimlaneBody=0;fillColor=none;collapsible=0;dropTarget=0;points=[[0,0.5],[1,0.5]];portConstraint=eastwest;top=0;left=0;right=0;bottom=0;strokeColor=#E07A5F;fontColor=#393C56;" vertex="1" parent="IFY6uD7Rp_7liyDfAHqy-409">
          <mxGeometry y="180" width="180" height="30" as="geometry" />
        </mxCell>
        <mxCell id="IFY6uD7Rp_7liyDfAHqy-429" value="FK" style="shape=partialRectangle;connectable=0;fillColor=none;top=0;left=0;bottom=0;right=0;editable=1;overflow=hidden;whiteSpace=wrap;html=1;strokeColor=#E07A5F;fontColor=#393C56;" vertex="1" parent="IFY6uD7Rp_7liyDfAHqy-428">
          <mxGeometry width="30" height="30" as="geometry">
            <mxRectangle width="30" height="30" as="alternateBounds" />
          </mxGeometry>
        </mxCell>
        <mxCell id="IFY6uD7Rp_7liyDfAHqy-430" value="status_id" style="shape=partialRectangle;connectable=0;fillColor=none;top=0;left=0;bottom=0;right=0;align=left;spacingLeft=6;overflow=hidden;whiteSpace=wrap;html=1;strokeColor=#E07A5F;fontColor=#393C56;" vertex="1" parent="IFY6uD7Rp_7liyDfAHqy-428">
          <mxGeometry x="30" width="150" height="30" as="geometry">
            <mxRectangle width="150" height="30" as="alternateBounds" />
          </mxGeometry>
        </mxCell>
        <mxCell id="IFY6uD7Rp_7liyDfAHqy-431" value="Account" style="shape=table;startSize=30;container=1;collapsible=1;childLayout=tableLayout;fixedRows=1;rowLines=0;fontStyle=1;align=center;resizeLast=1;html=1;strokeColor=#E07A5F;fontColor=#393C56;fillColor=#F2CC8F;" vertex="1" parent="1">
          <mxGeometry x="777" y="357" width="180" height="240" as="geometry" />
        </mxCell>
        <mxCell id="IFY6uD7Rp_7liyDfAHqy-432" value="" style="shape=tableRow;horizontal=0;startSize=0;swimlaneHead=0;swimlaneBody=0;fillColor=none;collapsible=0;dropTarget=0;points=[[0,0.5],[1,0.5]];portConstraint=eastwest;top=0;left=0;right=0;bottom=1;strokeColor=#E07A5F;fontColor=#393C56;" vertex="1" parent="IFY6uD7Rp_7liyDfAHqy-431">
          <mxGeometry y="30" width="180" height="30" as="geometry" />
        </mxCell>
        <mxCell id="IFY6uD7Rp_7liyDfAHqy-433" value="PK" style="shape=partialRectangle;connectable=0;fillColor=none;top=0;left=0;bottom=0;right=0;fontStyle=1;overflow=hidden;whiteSpace=wrap;html=1;strokeColor=#E07A5F;fontColor=#393C56;" vertex="1" parent="IFY6uD7Rp_7liyDfAHqy-432">
          <mxGeometry width="30" height="30" as="geometry">
            <mxRectangle width="30" height="30" as="alternateBounds" />
          </mxGeometry>
        </mxCell>
        <mxCell id="IFY6uD7Rp_7liyDfAHqy-434" value="user_id" style="shape=partialRectangle;connectable=0;fillColor=none;top=0;left=0;bottom=0;right=0;align=left;spacingLeft=6;fontStyle=5;overflow=hidden;whiteSpace=wrap;html=1;strokeColor=#E07A5F;fontColor=#393C56;" vertex="1" parent="IFY6uD7Rp_7liyDfAHqy-432">
          <mxGeometry x="30" width="150" height="30" as="geometry">
            <mxRectangle width="150" height="30" as="alternateBounds" />
          </mxGeometry>
        </mxCell>
        <mxCell id="IFY6uD7Rp_7liyDfAHqy-435" value="" style="shape=tableRow;horizontal=0;startSize=0;swimlaneHead=0;swimlaneBody=0;fillColor=none;collapsible=0;dropTarget=0;points=[[0,0.5],[1,0.5]];portConstraint=eastwest;top=0;left=0;right=0;bottom=0;strokeColor=#E07A5F;fontColor=#393C56;" vertex="1" parent="IFY6uD7Rp_7liyDfAHqy-431">
          <mxGeometry y="60" width="180" height="30" as="geometry" />
        </mxCell>
        <mxCell id="IFY6uD7Rp_7liyDfAHqy-436" value="" style="shape=partialRectangle;connectable=0;fillColor=none;top=0;left=0;bottom=0;right=0;editable=1;overflow=hidden;whiteSpace=wrap;html=1;strokeColor=#E07A5F;fontColor=#393C56;" vertex="1" parent="IFY6uD7Rp_7liyDfAHqy-435">
          <mxGeometry width="30" height="30" as="geometry">
            <mxRectangle width="30" height="30" as="alternateBounds" />
          </mxGeometry>
        </mxCell>
        <mxCell id="IFY6uD7Rp_7liyDfAHqy-437" value="acc_username" style="shape=partialRectangle;connectable=0;fillColor=none;top=0;left=0;bottom=0;right=0;align=left;spacingLeft=6;overflow=hidden;whiteSpace=wrap;html=1;strokeColor=#E07A5F;fontColor=#393C56;" vertex="1" parent="IFY6uD7Rp_7liyDfAHqy-435">
          <mxGeometry x="30" width="150" height="30" as="geometry">
            <mxRectangle width="150" height="30" as="alternateBounds" />
          </mxGeometry>
        </mxCell>
        <mxCell id="IFY6uD7Rp_7liyDfAHqy-438" value="" style="shape=tableRow;horizontal=0;startSize=0;swimlaneHead=0;swimlaneBody=0;fillColor=none;collapsible=0;dropTarget=0;points=[[0,0.5],[1,0.5]];portConstraint=eastwest;top=0;left=0;right=0;bottom=0;strokeColor=#E07A5F;fontColor=#393C56;" vertex="1" parent="IFY6uD7Rp_7liyDfAHqy-431">
          <mxGeometry y="90" width="180" height="30" as="geometry" />
        </mxCell>
        <mxCell id="IFY6uD7Rp_7liyDfAHqy-439" value="" style="shape=partialRectangle;connectable=0;fillColor=none;top=0;left=0;bottom=0;right=0;editable=1;overflow=hidden;whiteSpace=wrap;html=1;strokeColor=#E07A5F;fontColor=#393C56;" vertex="1" parent="IFY6uD7Rp_7liyDfAHqy-438">
          <mxGeometry width="30" height="30" as="geometry">
            <mxRectangle width="30" height="30" as="alternateBounds" />
          </mxGeometry>
        </mxCell>
        <mxCell id="IFY6uD7Rp_7liyDfAHqy-440" value="acc_password" style="shape=partialRectangle;connectable=0;fillColor=none;top=0;left=0;bottom=0;right=0;align=left;spacingLeft=6;overflow=hidden;whiteSpace=wrap;html=1;strokeColor=#E07A5F;fontColor=#393C56;" vertex="1" parent="IFY6uD7Rp_7liyDfAHqy-438">
          <mxGeometry x="30" width="150" height="30" as="geometry">
            <mxRectangle width="150" height="30" as="alternateBounds" />
          </mxGeometry>
        </mxCell>
        <mxCell id="IFY6uD7Rp_7liyDfAHqy-441" value="" style="shape=tableRow;horizontal=0;startSize=0;swimlaneHead=0;swimlaneBody=0;fillColor=none;collapsible=0;dropTarget=0;points=[[0,0.5],[1,0.5]];portConstraint=eastwest;top=0;left=0;right=0;bottom=0;strokeColor=#E07A5F;fontColor=#393C56;" vertex="1" parent="IFY6uD7Rp_7liyDfAHqy-431">
          <mxGeometry y="120" width="180" height="30" as="geometry" />
        </mxCell>
        <mxCell id="IFY6uD7Rp_7liyDfAHqy-442" value="" style="shape=partialRectangle;connectable=0;fillColor=none;top=0;left=0;bottom=0;right=0;editable=1;overflow=hidden;whiteSpace=wrap;html=1;strokeColor=#E07A5F;fontColor=#393C56;" vertex="1" parent="IFY6uD7Rp_7liyDfAHqy-441">
          <mxGeometry width="30" height="30" as="geometry">
            <mxRectangle width="30" height="30" as="alternateBounds" />
          </mxGeometry>
        </mxCell>
        <mxCell id="IFY6uD7Rp_7liyDfAHqy-443" value="question_secret" style="shape=partialRectangle;connectable=0;fillColor=none;top=0;left=0;bottom=0;right=0;align=left;spacingLeft=6;overflow=hidden;whiteSpace=wrap;html=1;strokeColor=#E07A5F;fontColor=#393C56;" vertex="1" parent="IFY6uD7Rp_7liyDfAHqy-441">
          <mxGeometry x="30" width="150" height="30" as="geometry">
            <mxRectangle width="150" height="30" as="alternateBounds" />
          </mxGeometry>
        </mxCell>
        <mxCell id="IFY6uD7Rp_7liyDfAHqy-450" value="" style="shape=tableRow;horizontal=0;startSize=0;swimlaneHead=0;swimlaneBody=0;fillColor=none;collapsible=0;dropTarget=0;points=[[0,0.5],[1,0.5]];portConstraint=eastwest;top=0;left=0;right=0;bottom=0;strokeColor=#E07A5F;fontColor=#393C56;" vertex="1" parent="IFY6uD7Rp_7liyDfAHqy-431">
          <mxGeometry y="150" width="180" height="30" as="geometry" />
        </mxCell>
        <mxCell id="IFY6uD7Rp_7liyDfAHqy-451" value="" style="shape=partialRectangle;connectable=0;fillColor=none;top=0;left=0;bottom=0;right=0;editable=1;overflow=hidden;whiteSpace=wrap;html=1;strokeColor=#E07A5F;fontColor=#393C56;" vertex="1" parent="IFY6uD7Rp_7liyDfAHqy-450">
          <mxGeometry width="30" height="30" as="geometry">
            <mxRectangle width="30" height="30" as="alternateBounds" />
          </mxGeometry>
        </mxCell>
        <mxCell id="IFY6uD7Rp_7liyDfAHqy-452" value="answer_secret" style="shape=partialRectangle;connectable=0;fillColor=none;top=0;left=0;bottom=0;right=0;align=left;spacingLeft=6;overflow=hidden;whiteSpace=wrap;html=1;strokeColor=#E07A5F;fontColor=#393C56;" vertex="1" parent="IFY6uD7Rp_7liyDfAHqy-450">
          <mxGeometry x="30" width="150" height="30" as="geometry">
            <mxRectangle width="150" height="30" as="alternateBounds" />
          </mxGeometry>
        </mxCell>
        <mxCell id="IFY6uD7Rp_7liyDfAHqy-453" value="" style="shape=tableRow;horizontal=0;startSize=0;swimlaneHead=0;swimlaneBody=0;fillColor=none;collapsible=0;dropTarget=0;points=[[0,0.5],[1,0.5]];portConstraint=eastwest;top=0;left=0;right=0;bottom=0;strokeColor=#E07A5F;fontColor=#393C56;" vertex="1" parent="IFY6uD7Rp_7liyDfAHqy-431">
          <mxGeometry y="180" width="180" height="30" as="geometry" />
        </mxCell>
        <mxCell id="IFY6uD7Rp_7liyDfAHqy-454" value="" style="shape=partialRectangle;connectable=0;fillColor=none;top=0;left=0;bottom=0;right=0;editable=1;overflow=hidden;whiteSpace=wrap;html=1;strokeColor=#E07A5F;fontColor=#393C56;" vertex="1" parent="IFY6uD7Rp_7liyDfAHqy-453">
          <mxGeometry width="30" height="30" as="geometry">
            <mxRectangle width="30" height="30" as="alternateBounds" />
          </mxGeometry>
        </mxCell>
        <mxCell id="IFY6uD7Rp_7liyDfAHqy-455" value="token" style="shape=partialRectangle;connectable=0;fillColor=none;top=0;left=0;bottom=0;right=0;align=left;spacingLeft=6;overflow=hidden;whiteSpace=wrap;html=1;strokeColor=#E07A5F;fontColor=#393C56;" vertex="1" parent="IFY6uD7Rp_7liyDfAHqy-453">
          <mxGeometry x="30" width="150" height="30" as="geometry">
            <mxRectangle width="150" height="30" as="alternateBounds" />
          </mxGeometry>
        </mxCell>
        <mxCell id="IFY6uD7Rp_7liyDfAHqy-456" value="" style="shape=tableRow;horizontal=0;startSize=0;swimlaneHead=0;swimlaneBody=0;fillColor=none;collapsible=0;dropTarget=0;points=[[0,0.5],[1,0.5]];portConstraint=eastwest;top=0;left=0;right=0;bottom=0;strokeColor=#E07A5F;fontColor=#393C56;" vertex="1" parent="IFY6uD7Rp_7liyDfAHqy-431">
          <mxGeometry y="210" width="180" height="30" as="geometry" />
        </mxCell>
        <mxCell id="IFY6uD7Rp_7liyDfAHqy-457" value="" style="shape=partialRectangle;connectable=0;fillColor=none;top=0;left=0;bottom=0;right=0;editable=1;overflow=hidden;whiteSpace=wrap;html=1;strokeColor=#E07A5F;fontColor=#393C56;" vertex="1" parent="IFY6uD7Rp_7liyDfAHqy-456">
          <mxGeometry width="30" height="30" as="geometry">
            <mxRectangle width="30" height="30" as="alternateBounds" />
          </mxGeometry>
        </mxCell>
        <mxCell id="IFY6uD7Rp_7liyDfAHqy-458" value="email_reset" style="shape=partialRectangle;connectable=0;fillColor=none;top=0;left=0;bottom=0;right=0;align=left;spacingLeft=6;overflow=hidden;whiteSpace=wrap;html=1;strokeColor=#E07A5F;fontColor=#393C56;" vertex="1" parent="IFY6uD7Rp_7liyDfAHqy-456">
          <mxGeometry x="30" width="150" height="30" as="geometry">
            <mxRectangle width="150" height="30" as="alternateBounds" />
          </mxGeometry>
        </mxCell>
        <mxCell id="IFY6uD7Rp_7liyDfAHqy-472" value="User_role" style="shape=table;startSize=30;container=1;collapsible=1;childLayout=tableLayout;fixedRows=1;rowLines=0;fontStyle=1;align=center;resizeLast=1;html=1;whiteSpace=wrap;strokeColor=#E07A5F;fontColor=#393C56;fillColor=#F2CC8F;" vertex="1" parent="1">
          <mxGeometry x="1134" y="-63" width="180" height="150" as="geometry" />
        </mxCell>
        <mxCell id="IFY6uD7Rp_7liyDfAHqy-473" value="" style="shape=tableRow;horizontal=0;startSize=0;swimlaneHead=0;swimlaneBody=0;fillColor=none;collapsible=0;dropTarget=0;points=[[0,0.5],[1,0.5]];portConstraint=eastwest;top=0;left=0;right=0;bottom=0;html=1;strokeColor=#E07A5F;fontColor=#393C56;" vertex="1" parent="IFY6uD7Rp_7liyDfAHqy-472">
          <mxGeometry y="30" width="180" height="30" as="geometry" />
        </mxCell>
        <mxCell id="IFY6uD7Rp_7liyDfAHqy-474" value="PK,FK1" style="shape=partialRectangle;connectable=0;fillColor=none;top=0;left=0;bottom=0;right=0;fontStyle=1;overflow=hidden;html=1;whiteSpace=wrap;strokeColor=#E07A5F;fontColor=#393C56;" vertex="1" parent="IFY6uD7Rp_7liyDfAHqy-473">
          <mxGeometry width="60" height="30" as="geometry">
            <mxRectangle width="60" height="30" as="alternateBounds" />
          </mxGeometry>
        </mxCell>
        <mxCell id="IFY6uD7Rp_7liyDfAHqy-475" value="user_id" style="shape=partialRectangle;connectable=0;fillColor=none;top=0;left=0;bottom=0;right=0;align=left;spacingLeft=6;fontStyle=5;overflow=hidden;html=1;whiteSpace=wrap;strokeColor=#E07A5F;fontColor=#393C56;" vertex="1" parent="IFY6uD7Rp_7liyDfAHqy-473">
          <mxGeometry x="60" width="120" height="30" as="geometry">
            <mxRectangle width="120" height="30" as="alternateBounds" />
          </mxGeometry>
        </mxCell>
        <mxCell id="IFY6uD7Rp_7liyDfAHqy-476" value="" style="shape=tableRow;horizontal=0;startSize=0;swimlaneHead=0;swimlaneBody=0;fillColor=none;collapsible=0;dropTarget=0;points=[[0,0.5],[1,0.5]];portConstraint=eastwest;top=0;left=0;right=0;bottom=1;html=1;strokeColor=#E07A5F;fontColor=#393C56;" vertex="1" parent="IFY6uD7Rp_7liyDfAHqy-472">
          <mxGeometry y="60" width="180" height="30" as="geometry" />
        </mxCell>
        <mxCell id="IFY6uD7Rp_7liyDfAHqy-477" value="PK,FK2" style="shape=partialRectangle;connectable=0;fillColor=none;top=0;left=0;bottom=0;right=0;fontStyle=1;overflow=hidden;html=1;whiteSpace=wrap;strokeColor=#E07A5F;fontColor=#393C56;" vertex="1" parent="IFY6uD7Rp_7liyDfAHqy-476">
          <mxGeometry width="60" height="30" as="geometry">
            <mxRectangle width="60" height="30" as="alternateBounds" />
          </mxGeometry>
        </mxCell>
        <mxCell id="IFY6uD7Rp_7liyDfAHqy-478" value="role_id" style="shape=partialRectangle;connectable=0;fillColor=none;top=0;left=0;bottom=0;right=0;align=left;spacingLeft=6;fontStyle=5;overflow=hidden;html=1;whiteSpace=wrap;strokeColor=#E07A5F;fontColor=#393C56;" vertex="1" parent="IFY6uD7Rp_7liyDfAHqy-476">
          <mxGeometry x="60" width="120" height="30" as="geometry">
            <mxRectangle width="120" height="30" as="alternateBounds" />
          </mxGeometry>
        </mxCell>
        <mxCell id="IFY6uD7Rp_7liyDfAHqy-479" value="" style="shape=tableRow;horizontal=0;startSize=0;swimlaneHead=0;swimlaneBody=0;fillColor=none;collapsible=0;dropTarget=0;points=[[0,0.5],[1,0.5]];portConstraint=eastwest;top=0;left=0;right=0;bottom=0;html=1;strokeColor=#E07A5F;fontColor=#393C56;" vertex="1" parent="IFY6uD7Rp_7liyDfAHqy-472">
          <mxGeometry y="90" width="180" height="30" as="geometry" />
        </mxCell>
        <mxCell id="IFY6uD7Rp_7liyDfAHqy-480" value="" style="shape=partialRectangle;connectable=0;fillColor=none;top=0;left=0;bottom=0;right=0;editable=1;overflow=hidden;html=1;whiteSpace=wrap;strokeColor=#E07A5F;fontColor=#393C56;" vertex="1" parent="IFY6uD7Rp_7liyDfAHqy-479">
          <mxGeometry width="60" height="30" as="geometry">
            <mxRectangle width="60" height="30" as="alternateBounds" />
          </mxGeometry>
        </mxCell>
        <mxCell id="IFY6uD7Rp_7liyDfAHqy-481" value="date_created" style="shape=partialRectangle;connectable=0;fillColor=none;top=0;left=0;bottom=0;right=0;align=left;spacingLeft=6;overflow=hidden;html=1;whiteSpace=wrap;strokeColor=#E07A5F;fontColor=#393C56;" vertex="1" parent="IFY6uD7Rp_7liyDfAHqy-479">
          <mxGeometry x="60" width="120" height="30" as="geometry">
            <mxRectangle width="120" height="30" as="alternateBounds" />
          </mxGeometry>
        </mxCell>
        <mxCell id="IFY6uD7Rp_7liyDfAHqy-482" value="" style="shape=tableRow;horizontal=0;startSize=0;swimlaneHead=0;swimlaneBody=0;fillColor=none;collapsible=0;dropTarget=0;points=[[0,0.5],[1,0.5]];portConstraint=eastwest;top=0;left=0;right=0;bottom=0;html=1;strokeColor=#E07A5F;fontColor=#393C56;" vertex="1" parent="IFY6uD7Rp_7liyDfAHqy-472">
          <mxGeometry y="120" width="180" height="30" as="geometry" />
        </mxCell>
        <mxCell id="IFY6uD7Rp_7liyDfAHqy-483" value="" style="shape=partialRectangle;connectable=0;fillColor=none;top=0;left=0;bottom=0;right=0;editable=1;overflow=hidden;html=1;whiteSpace=wrap;strokeColor=#E07A5F;fontColor=#393C56;" vertex="1" parent="IFY6uD7Rp_7liyDfAHqy-482">
          <mxGeometry width="60" height="30" as="geometry">
            <mxRectangle width="60" height="30" as="alternateBounds" />
          </mxGeometry>
        </mxCell>
        <mxCell id="IFY6uD7Rp_7liyDfAHqy-484" value="date_updated" style="shape=partialRectangle;connectable=0;fillColor=none;top=0;left=0;bottom=0;right=0;align=left;spacingLeft=6;overflow=hidden;html=1;whiteSpace=wrap;strokeColor=#E07A5F;fontColor=#393C56;" vertex="1" parent="IFY6uD7Rp_7liyDfAHqy-482">
          <mxGeometry x="60" width="120" height="30" as="geometry">
            <mxRectangle width="120" height="30" as="alternateBounds" />
          </mxGeometry>
        </mxCell>
        <mxCell id="IFY6uD7Rp_7liyDfAHqy-485" value="role" style="shape=table;startSize=30;container=1;collapsible=1;childLayout=tableLayout;fixedRows=1;rowLines=0;fontStyle=1;align=center;resizeLast=1;html=1;strokeColor=#E07A5F;fontColor=#393C56;fillColor=#F2CC8F;" vertex="1" parent="1">
          <mxGeometry x="1134" y="154" width="180" height="150" as="geometry" />
        </mxCell>
        <mxCell id="IFY6uD7Rp_7liyDfAHqy-486" value="" style="shape=tableRow;horizontal=0;startSize=0;swimlaneHead=0;swimlaneBody=0;fillColor=none;collapsible=0;dropTarget=0;points=[[0,0.5],[1,0.5]];portConstraint=eastwest;top=0;left=0;right=0;bottom=1;strokeColor=#E07A5F;fontColor=#393C56;" vertex="1" parent="IFY6uD7Rp_7liyDfAHqy-485">
          <mxGeometry y="30" width="180" height="30" as="geometry" />
        </mxCell>
        <mxCell id="IFY6uD7Rp_7liyDfAHqy-487" value="PK" style="shape=partialRectangle;connectable=0;fillColor=none;top=0;left=0;bottom=0;right=0;fontStyle=1;overflow=hidden;whiteSpace=wrap;html=1;strokeColor=#E07A5F;fontColor=#393C56;" vertex="1" parent="IFY6uD7Rp_7liyDfAHqy-486">
          <mxGeometry width="30" height="30" as="geometry">
            <mxRectangle width="30" height="30" as="alternateBounds" />
          </mxGeometry>
        </mxCell>
        <mxCell id="IFY6uD7Rp_7liyDfAHqy-488" value="id" style="shape=partialRectangle;connectable=0;fillColor=none;top=0;left=0;bottom=0;right=0;align=left;spacingLeft=6;fontStyle=5;overflow=hidden;whiteSpace=wrap;html=1;strokeColor=#E07A5F;fontColor=#393C56;" vertex="1" parent="IFY6uD7Rp_7liyDfAHqy-486">
          <mxGeometry x="30" width="150" height="30" as="geometry">
            <mxRectangle width="150" height="30" as="alternateBounds" />
          </mxGeometry>
        </mxCell>
        <mxCell id="IFY6uD7Rp_7liyDfAHqy-489" value="" style="shape=tableRow;horizontal=0;startSize=0;swimlaneHead=0;swimlaneBody=0;fillColor=none;collapsible=0;dropTarget=0;points=[[0,0.5],[1,0.5]];portConstraint=eastwest;top=0;left=0;right=0;bottom=0;strokeColor=#E07A5F;fontColor=#393C56;" vertex="1" parent="IFY6uD7Rp_7liyDfAHqy-485">
          <mxGeometry y="60" width="180" height="30" as="geometry" />
        </mxCell>
        <mxCell id="IFY6uD7Rp_7liyDfAHqy-490" value="" style="shape=partialRectangle;connectable=0;fillColor=none;top=0;left=0;bottom=0;right=0;editable=1;overflow=hidden;whiteSpace=wrap;html=1;strokeColor=#E07A5F;fontColor=#393C56;" vertex="1" parent="IFY6uD7Rp_7liyDfAHqy-489">
          <mxGeometry width="30" height="30" as="geometry">
            <mxRectangle width="30" height="30" as="alternateBounds" />
          </mxGeometry>
        </mxCell>
        <mxCell id="IFY6uD7Rp_7liyDfAHqy-491" value="role_name" style="shape=partialRectangle;connectable=0;fillColor=none;top=0;left=0;bottom=0;right=0;align=left;spacingLeft=6;overflow=hidden;whiteSpace=wrap;html=1;strokeColor=#E07A5F;fontColor=#393C56;" vertex="1" parent="IFY6uD7Rp_7liyDfAHqy-489">
          <mxGeometry x="30" width="150" height="30" as="geometry">
            <mxRectangle width="150" height="30" as="alternateBounds" />
          </mxGeometry>
        </mxCell>
        <mxCell id="IFY6uD7Rp_7liyDfAHqy-492" value="" style="shape=tableRow;horizontal=0;startSize=0;swimlaneHead=0;swimlaneBody=0;fillColor=none;collapsible=0;dropTarget=0;points=[[0,0.5],[1,0.5]];portConstraint=eastwest;top=0;left=0;right=0;bottom=0;strokeColor=#E07A5F;fontColor=#393C56;" vertex="1" parent="IFY6uD7Rp_7liyDfAHqy-485">
          <mxGeometry y="90" width="180" height="30" as="geometry" />
        </mxCell>
        <mxCell id="IFY6uD7Rp_7liyDfAHqy-493" value="" style="shape=partialRectangle;connectable=0;fillColor=none;top=0;left=0;bottom=0;right=0;editable=1;overflow=hidden;whiteSpace=wrap;html=1;strokeColor=#E07A5F;fontColor=#393C56;" vertex="1" parent="IFY6uD7Rp_7liyDfAHqy-492">
          <mxGeometry width="30" height="30" as="geometry">
            <mxRectangle width="30" height="30" as="alternateBounds" />
          </mxGeometry>
        </mxCell>
        <mxCell id="IFY6uD7Rp_7liyDfAHqy-494" value="value" style="shape=partialRectangle;connectable=0;fillColor=none;top=0;left=0;bottom=0;right=0;align=left;spacingLeft=6;overflow=hidden;whiteSpace=wrap;html=1;strokeColor=#E07A5F;fontColor=#393C56;" vertex="1" parent="IFY6uD7Rp_7liyDfAHqy-492">
          <mxGeometry x="30" width="150" height="30" as="geometry">
            <mxRectangle width="150" height="30" as="alternateBounds" />
          </mxGeometry>
        </mxCell>
        <mxCell id="IFY6uD7Rp_7liyDfAHqy-495" value="" style="shape=tableRow;horizontal=0;startSize=0;swimlaneHead=0;swimlaneBody=0;fillColor=none;collapsible=0;dropTarget=0;points=[[0,0.5],[1,0.5]];portConstraint=eastwest;top=0;left=0;right=0;bottom=0;strokeColor=#E07A5F;fontColor=#393C56;" vertex="1" parent="IFY6uD7Rp_7liyDfAHqy-485">
          <mxGeometry y="120" width="180" height="30" as="geometry" />
        </mxCell>
        <mxCell id="IFY6uD7Rp_7liyDfAHqy-496" value="" style="shape=partialRectangle;connectable=0;fillColor=none;top=0;left=0;bottom=0;right=0;editable=1;overflow=hidden;whiteSpace=wrap;html=1;strokeColor=#E07A5F;fontColor=#393C56;" vertex="1" parent="IFY6uD7Rp_7liyDfAHqy-495">
          <mxGeometry width="30" height="30" as="geometry">
            <mxRectangle width="30" height="30" as="alternateBounds" />
          </mxGeometry>
        </mxCell>
        <mxCell id="IFY6uD7Rp_7liyDfAHqy-497" value="date_updated" style="shape=partialRectangle;connectable=0;fillColor=none;top=0;left=0;bottom=0;right=0;align=left;spacingLeft=6;overflow=hidden;whiteSpace=wrap;html=1;strokeColor=#E07A5F;fontColor=#393C56;" vertex="1" parent="IFY6uD7Rp_7liyDfAHqy-495">
          <mxGeometry x="30" width="150" height="30" as="geometry">
            <mxRectangle width="150" height="30" as="alternateBounds" />
          </mxGeometry>
        </mxCell>
        <mxCell id="IFY6uD7Rp_7liyDfAHqy-498" value="Notification" style="shape=table;startSize=30;container=1;collapsible=1;childLayout=tableLayout;fixedRows=1;rowLines=0;fontStyle=1;align=center;resizeLast=1;html=1;strokeColor=#E07A5F;fontColor=#393C56;fillColor=#F2CC8F;" vertex="1" parent="1">
          <mxGeometry x="910" y="-518" width="180" height="270" as="geometry" />
        </mxCell>
        <mxCell id="IFY6uD7Rp_7liyDfAHqy-499" value="" style="shape=tableRow;horizontal=0;startSize=0;swimlaneHead=0;swimlaneBody=0;fillColor=none;collapsible=0;dropTarget=0;points=[[0,0.5],[1,0.5]];portConstraint=eastwest;top=0;left=0;right=0;bottom=1;strokeColor=#E07A5F;fontColor=#393C56;" vertex="1" parent="IFY6uD7Rp_7liyDfAHqy-498">
          <mxGeometry y="30" width="180" height="30" as="geometry" />
        </mxCell>
        <mxCell id="IFY6uD7Rp_7liyDfAHqy-500" value="PK" style="shape=partialRectangle;connectable=0;fillColor=none;top=0;left=0;bottom=0;right=0;fontStyle=1;overflow=hidden;whiteSpace=wrap;html=1;strokeColor=#E07A5F;fontColor=#393C56;" vertex="1" parent="IFY6uD7Rp_7liyDfAHqy-499">
          <mxGeometry width="30" height="30" as="geometry">
            <mxRectangle width="30" height="30" as="alternateBounds" />
          </mxGeometry>
        </mxCell>
        <mxCell id="IFY6uD7Rp_7liyDfAHqy-501" value="id" style="shape=partialRectangle;connectable=0;fillColor=none;top=0;left=0;bottom=0;right=0;align=left;spacingLeft=6;fontStyle=5;overflow=hidden;whiteSpace=wrap;html=1;strokeColor=#E07A5F;fontColor=#393C56;" vertex="1" parent="IFY6uD7Rp_7liyDfAHqy-499">
          <mxGeometry x="30" width="150" height="30" as="geometry">
            <mxRectangle width="150" height="30" as="alternateBounds" />
          </mxGeometry>
        </mxCell>
        <mxCell id="IFY6uD7Rp_7liyDfAHqy-502" value="" style="shape=tableRow;horizontal=0;startSize=0;swimlaneHead=0;swimlaneBody=0;fillColor=none;collapsible=0;dropTarget=0;points=[[0,0.5],[1,0.5]];portConstraint=eastwest;top=0;left=0;right=0;bottom=0;strokeColor=#E07A5F;fontColor=#393C56;" vertex="1" parent="IFY6uD7Rp_7liyDfAHqy-498">
          <mxGeometry y="60" width="180" height="30" as="geometry" />
        </mxCell>
        <mxCell id="IFY6uD7Rp_7liyDfAHqy-503" value="" style="shape=partialRectangle;connectable=0;fillColor=none;top=0;left=0;bottom=0;right=0;editable=1;overflow=hidden;whiteSpace=wrap;html=1;strokeColor=#E07A5F;fontColor=#393C56;" vertex="1" parent="IFY6uD7Rp_7liyDfAHqy-502">
          <mxGeometry width="30" height="30" as="geometry">
            <mxRectangle width="30" height="30" as="alternateBounds" />
          </mxGeometry>
        </mxCell>
        <mxCell id="IFY6uD7Rp_7liyDfAHqy-504" value="content" style="shape=partialRectangle;connectable=0;fillColor=none;top=0;left=0;bottom=0;right=0;align=left;spacingLeft=6;overflow=hidden;whiteSpace=wrap;html=1;strokeColor=#E07A5F;fontColor=#393C56;" vertex="1" parent="IFY6uD7Rp_7liyDfAHqy-502">
          <mxGeometry x="30" width="150" height="30" as="geometry">
            <mxRectangle width="150" height="30" as="alternateBounds" />
          </mxGeometry>
        </mxCell>
        <mxCell id="IFY6uD7Rp_7liyDfAHqy-505" value="" style="shape=tableRow;horizontal=0;startSize=0;swimlaneHead=0;swimlaneBody=0;fillColor=none;collapsible=0;dropTarget=0;points=[[0,0.5],[1,0.5]];portConstraint=eastwest;top=0;left=0;right=0;bottom=0;strokeColor=#E07A5F;fontColor=#393C56;" vertex="1" parent="IFY6uD7Rp_7liyDfAHqy-498">
          <mxGeometry y="90" width="180" height="30" as="geometry" />
        </mxCell>
        <mxCell id="IFY6uD7Rp_7liyDfAHqy-506" value="" style="shape=partialRectangle;connectable=0;fillColor=none;top=0;left=0;bottom=0;right=0;editable=1;overflow=hidden;whiteSpace=wrap;html=1;strokeColor=#E07A5F;fontColor=#393C56;" vertex="1" parent="IFY6uD7Rp_7liyDfAHqy-505">
          <mxGeometry width="30" height="30" as="geometry">
            <mxRectangle width="30" height="30" as="alternateBounds" />
          </mxGeometry>
        </mxCell>
        <mxCell id="IFY6uD7Rp_7liyDfAHqy-507" value="title" style="shape=partialRectangle;connectable=0;fillColor=none;top=0;left=0;bottom=0;right=0;align=left;spacingLeft=6;overflow=hidden;whiteSpace=wrap;html=1;strokeColor=#E07A5F;fontColor=#393C56;" vertex="1" parent="IFY6uD7Rp_7liyDfAHqy-505">
          <mxGeometry x="30" width="150" height="30" as="geometry">
            <mxRectangle width="150" height="30" as="alternateBounds" />
          </mxGeometry>
        </mxCell>
        <mxCell id="IFY6uD7Rp_7liyDfAHqy-511" value="" style="shape=tableRow;horizontal=0;startSize=0;swimlaneHead=0;swimlaneBody=0;fillColor=none;collapsible=0;dropTarget=0;points=[[0,0.5],[1,0.5]];portConstraint=eastwest;top=0;left=0;right=0;bottom=0;strokeColor=#E07A5F;fontColor=#393C56;" vertex="1" parent="IFY6uD7Rp_7liyDfAHqy-498">
          <mxGeometry y="120" width="180" height="30" as="geometry" />
        </mxCell>
        <mxCell id="IFY6uD7Rp_7liyDfAHqy-512" value="" style="shape=partialRectangle;connectable=0;fillColor=none;top=0;left=0;bottom=0;right=0;editable=1;overflow=hidden;whiteSpace=wrap;html=1;strokeColor=#E07A5F;fontColor=#393C56;" vertex="1" parent="IFY6uD7Rp_7liyDfAHqy-511">
          <mxGeometry width="30" height="30" as="geometry">
            <mxRectangle width="30" height="30" as="alternateBounds" />
          </mxGeometry>
        </mxCell>
        <mxCell id="IFY6uD7Rp_7liyDfAHqy-513" value="link" style="shape=partialRectangle;connectable=0;fillColor=none;top=0;left=0;bottom=0;right=0;align=left;spacingLeft=6;overflow=hidden;whiteSpace=wrap;html=1;strokeColor=#E07A5F;fontColor=#393C56;" vertex="1" parent="IFY6uD7Rp_7liyDfAHqy-511">
          <mxGeometry x="30" width="150" height="30" as="geometry">
            <mxRectangle width="150" height="30" as="alternateBounds" />
          </mxGeometry>
        </mxCell>
        <mxCell id="IFY6uD7Rp_7liyDfAHqy-514" value="" style="shape=tableRow;horizontal=0;startSize=0;swimlaneHead=0;swimlaneBody=0;fillColor=none;collapsible=0;dropTarget=0;points=[[0,0.5],[1,0.5]];portConstraint=eastwest;top=0;left=0;right=0;bottom=0;strokeColor=#E07A5F;fontColor=#393C56;" vertex="1" parent="IFY6uD7Rp_7liyDfAHqy-498">
          <mxGeometry y="150" width="180" height="30" as="geometry" />
        </mxCell>
        <mxCell id="IFY6uD7Rp_7liyDfAHqy-515" value="" style="shape=partialRectangle;connectable=0;fillColor=none;top=0;left=0;bottom=0;right=0;editable=1;overflow=hidden;whiteSpace=wrap;html=1;strokeColor=#E07A5F;fontColor=#393C56;" vertex="1" parent="IFY6uD7Rp_7liyDfAHqy-514">
          <mxGeometry width="30" height="30" as="geometry">
            <mxRectangle width="30" height="30" as="alternateBounds" />
          </mxGeometry>
        </mxCell>
        <mxCell id="IFY6uD7Rp_7liyDfAHqy-516" value="date_created" style="shape=partialRectangle;connectable=0;fillColor=none;top=0;left=0;bottom=0;right=0;align=left;spacingLeft=6;overflow=hidden;whiteSpace=wrap;html=1;strokeColor=#E07A5F;fontColor=#393C56;" vertex="1" parent="IFY6uD7Rp_7liyDfAHqy-514">
          <mxGeometry x="30" width="150" height="30" as="geometry">
            <mxRectangle width="150" height="30" as="alternateBounds" />
          </mxGeometry>
        </mxCell>
        <mxCell id="IFY6uD7Rp_7liyDfAHqy-508" value="" style="shape=tableRow;horizontal=0;startSize=0;swimlaneHead=0;swimlaneBody=0;fillColor=none;collapsible=0;dropTarget=0;points=[[0,0.5],[1,0.5]];portConstraint=eastwest;top=0;left=0;right=0;bottom=0;strokeColor=#E07A5F;fontColor=#393C56;" vertex="1" parent="IFY6uD7Rp_7liyDfAHqy-498">
          <mxGeometry y="180" width="180" height="30" as="geometry" />
        </mxCell>
        <mxCell id="IFY6uD7Rp_7liyDfAHqy-509" value="FK" style="shape=partialRectangle;connectable=0;fillColor=none;top=0;left=0;bottom=0;right=0;editable=1;overflow=hidden;whiteSpace=wrap;html=1;strokeColor=#E07A5F;fontColor=#393C56;" vertex="1" parent="IFY6uD7Rp_7liyDfAHqy-508">
          <mxGeometry width="30" height="30" as="geometry">
            <mxRectangle width="30" height="30" as="alternateBounds" />
          </mxGeometry>
        </mxCell>
        <mxCell id="IFY6uD7Rp_7liyDfAHqy-510" value="status_id" style="shape=partialRectangle;connectable=0;fillColor=none;top=0;left=0;bottom=0;right=0;align=left;spacingLeft=6;overflow=hidden;whiteSpace=wrap;html=1;strokeColor=#E07A5F;fontColor=#393C56;" vertex="1" parent="IFY6uD7Rp_7liyDfAHqy-508">
          <mxGeometry x="30" width="150" height="30" as="geometry">
            <mxRectangle width="150" height="30" as="alternateBounds" />
          </mxGeometry>
        </mxCell>
        <mxCell id="IFY6uD7Rp_7liyDfAHqy-517" value="" style="shape=tableRow;horizontal=0;startSize=0;swimlaneHead=0;swimlaneBody=0;fillColor=none;collapsible=0;dropTarget=0;points=[[0,0.5],[1,0.5]];portConstraint=eastwest;top=0;left=0;right=0;bottom=0;strokeColor=#E07A5F;fontColor=#393C56;" vertex="1" parent="IFY6uD7Rp_7liyDfAHqy-498">
          <mxGeometry y="210" width="180" height="30" as="geometry" />
        </mxCell>
        <mxCell id="IFY6uD7Rp_7liyDfAHqy-518" value="FK" style="shape=partialRectangle;connectable=0;fillColor=none;top=0;left=0;bottom=0;right=0;editable=1;overflow=hidden;whiteSpace=wrap;html=1;strokeColor=#E07A5F;fontColor=#393C56;" vertex="1" parent="IFY6uD7Rp_7liyDfAHqy-517">
          <mxGeometry width="30" height="30" as="geometry">
            <mxRectangle width="30" height="30" as="alternateBounds" />
          </mxGeometry>
        </mxCell>
        <mxCell id="IFY6uD7Rp_7liyDfAHqy-519" value="from_user" style="shape=partialRectangle;connectable=0;fillColor=none;top=0;left=0;bottom=0;right=0;align=left;spacingLeft=6;overflow=hidden;whiteSpace=wrap;html=1;strokeColor=#E07A5F;fontColor=#393C56;" vertex="1" parent="IFY6uD7Rp_7liyDfAHqy-517">
          <mxGeometry x="30" width="150" height="30" as="geometry">
            <mxRectangle width="150" height="30" as="alternateBounds" />
          </mxGeometry>
        </mxCell>
        <mxCell id="IFY6uD7Rp_7liyDfAHqy-520" value="" style="shape=tableRow;horizontal=0;startSize=0;swimlaneHead=0;swimlaneBody=0;fillColor=none;collapsible=0;dropTarget=0;points=[[0,0.5],[1,0.5]];portConstraint=eastwest;top=0;left=0;right=0;bottom=0;strokeColor=#E07A5F;fontColor=#393C56;" vertex="1" parent="IFY6uD7Rp_7liyDfAHqy-498">
          <mxGeometry y="240" width="180" height="30" as="geometry" />
        </mxCell>
        <mxCell id="IFY6uD7Rp_7liyDfAHqy-521" value="FK" style="shape=partialRectangle;connectable=0;fillColor=none;top=0;left=0;bottom=0;right=0;editable=1;overflow=hidden;whiteSpace=wrap;html=1;strokeColor=#E07A5F;fontColor=#393C56;" vertex="1" parent="IFY6uD7Rp_7liyDfAHqy-520">
          <mxGeometry width="30" height="30" as="geometry">
            <mxRectangle width="30" height="30" as="alternateBounds" />
          </mxGeometry>
        </mxCell>
        <mxCell id="IFY6uD7Rp_7liyDfAHqy-522" value="to_user" style="shape=partialRectangle;connectable=0;fillColor=none;top=0;left=0;bottom=0;right=0;align=left;spacingLeft=6;overflow=hidden;whiteSpace=wrap;html=1;strokeColor=#E07A5F;fontColor=#393C56;" vertex="1" parent="IFY6uD7Rp_7liyDfAHqy-520">
          <mxGeometry x="30" width="150" height="30" as="geometry">
            <mxRectangle width="150" height="30" as="alternateBounds" />
          </mxGeometry>
        </mxCell>
        <mxCell id="IFY6uD7Rp_7liyDfAHqy-523" value="Note" style="shape=table;startSize=30;container=1;collapsible=1;childLayout=tableLayout;fixedRows=1;rowLines=0;fontStyle=1;align=center;resizeLast=1;html=1;strokeColor=#E07A5F;fontColor=#393C56;fillColor=#F2CC8F;" vertex="1" parent="1">
          <mxGeometry x="658" y="-425" width="180" height="270" as="geometry" />
        </mxCell>
        <mxCell id="IFY6uD7Rp_7liyDfAHqy-524" value="" style="shape=tableRow;horizontal=0;startSize=0;swimlaneHead=0;swimlaneBody=0;fillColor=none;collapsible=0;dropTarget=0;points=[[0,0.5],[1,0.5]];portConstraint=eastwest;top=0;left=0;right=0;bottom=1;strokeColor=#E07A5F;fontColor=#393C56;" vertex="1" parent="IFY6uD7Rp_7liyDfAHqy-523">
          <mxGeometry y="30" width="180" height="30" as="geometry" />
        </mxCell>
        <mxCell id="IFY6uD7Rp_7liyDfAHqy-525" value="PK" style="shape=partialRectangle;connectable=0;fillColor=none;top=0;left=0;bottom=0;right=0;fontStyle=1;overflow=hidden;whiteSpace=wrap;html=1;strokeColor=#E07A5F;fontColor=#393C56;" vertex="1" parent="IFY6uD7Rp_7liyDfAHqy-524">
          <mxGeometry width="30" height="30" as="geometry">
            <mxRectangle width="30" height="30" as="alternateBounds" />
          </mxGeometry>
        </mxCell>
        <mxCell id="IFY6uD7Rp_7liyDfAHqy-526" value="id" style="shape=partialRectangle;connectable=0;fillColor=none;top=0;left=0;bottom=0;right=0;align=left;spacingLeft=6;fontStyle=5;overflow=hidden;whiteSpace=wrap;html=1;strokeColor=#E07A5F;fontColor=#393C56;" vertex="1" parent="IFY6uD7Rp_7liyDfAHqy-524">
          <mxGeometry x="30" width="150" height="30" as="geometry">
            <mxRectangle width="150" height="30" as="alternateBounds" />
          </mxGeometry>
        </mxCell>
        <mxCell id="IFY6uD7Rp_7liyDfAHqy-527" value="" style="shape=tableRow;horizontal=0;startSize=0;swimlaneHead=0;swimlaneBody=0;fillColor=none;collapsible=0;dropTarget=0;points=[[0,0.5],[1,0.5]];portConstraint=eastwest;top=0;left=0;right=0;bottom=0;strokeColor=#E07A5F;fontColor=#393C56;" vertex="1" parent="IFY6uD7Rp_7liyDfAHqy-523">
          <mxGeometry y="60" width="180" height="30" as="geometry" />
        </mxCell>
        <mxCell id="IFY6uD7Rp_7liyDfAHqy-528" value="FK" style="shape=partialRectangle;connectable=0;fillColor=none;top=0;left=0;bottom=0;right=0;editable=1;overflow=hidden;whiteSpace=wrap;html=1;strokeColor=#E07A5F;fontColor=#393C56;" vertex="1" parent="IFY6uD7Rp_7liyDfAHqy-527">
          <mxGeometry width="30" height="30" as="geometry">
            <mxRectangle width="30" height="30" as="alternateBounds" />
          </mxGeometry>
        </mxCell>
        <mxCell id="IFY6uD7Rp_7liyDfAHqy-529" value="blog_id" style="shape=partialRectangle;connectable=0;fillColor=none;top=0;left=0;bottom=0;right=0;align=left;spacingLeft=6;overflow=hidden;whiteSpace=wrap;html=1;strokeColor=#E07A5F;fontColor=#393C56;" vertex="1" parent="IFY6uD7Rp_7liyDfAHqy-527">
          <mxGeometry x="30" width="150" height="30" as="geometry">
            <mxRectangle width="150" height="30" as="alternateBounds" />
          </mxGeometry>
        </mxCell>
        <mxCell id="IFY6uD7Rp_7liyDfAHqy-530" value="" style="shape=tableRow;horizontal=0;startSize=0;swimlaneHead=0;swimlaneBody=0;fillColor=none;collapsible=0;dropTarget=0;points=[[0,0.5],[1,0.5]];portConstraint=eastwest;top=0;left=0;right=0;bottom=0;strokeColor=#E07A5F;fontColor=#393C56;" vertex="1" parent="IFY6uD7Rp_7liyDfAHqy-523">
          <mxGeometry y="90" width="180" height="30" as="geometry" />
        </mxCell>
        <mxCell id="IFY6uD7Rp_7liyDfAHqy-531" value="FK" style="shape=partialRectangle;connectable=0;fillColor=none;top=0;left=0;bottom=0;right=0;editable=1;overflow=hidden;whiteSpace=wrap;html=1;strokeColor=#E07A5F;fontColor=#393C56;" vertex="1" parent="IFY6uD7Rp_7liyDfAHqy-530">
          <mxGeometry width="30" height="30" as="geometry">
            <mxRectangle width="30" height="30" as="alternateBounds" />
          </mxGeometry>
        </mxCell>
        <mxCell id="IFY6uD7Rp_7liyDfAHqy-532" value="user_id" style="shape=partialRectangle;connectable=0;fillColor=none;top=0;left=0;bottom=0;right=0;align=left;spacingLeft=6;overflow=hidden;whiteSpace=wrap;html=1;strokeColor=#E07A5F;fontColor=#393C56;" vertex="1" parent="IFY6uD7Rp_7liyDfAHqy-530">
          <mxGeometry x="30" width="150" height="30" as="geometry">
            <mxRectangle width="150" height="30" as="alternateBounds" />
          </mxGeometry>
        </mxCell>
        <mxCell id="IFY6uD7Rp_7liyDfAHqy-533" value="" style="shape=tableRow;horizontal=0;startSize=0;swimlaneHead=0;swimlaneBody=0;fillColor=none;collapsible=0;dropTarget=0;points=[[0,0.5],[1,0.5]];portConstraint=eastwest;top=0;left=0;right=0;bottom=0;strokeColor=#E07A5F;fontColor=#393C56;" vertex="1" parent="IFY6uD7Rp_7liyDfAHqy-523">
          <mxGeometry y="120" width="180" height="30" as="geometry" />
        </mxCell>
        <mxCell id="IFY6uD7Rp_7liyDfAHqy-534" value="" style="shape=partialRectangle;connectable=0;fillColor=none;top=0;left=0;bottom=0;right=0;editable=1;overflow=hidden;whiteSpace=wrap;html=1;strokeColor=#E07A5F;fontColor=#393C56;" vertex="1" parent="IFY6uD7Rp_7liyDfAHqy-533">
          <mxGeometry width="30" height="30" as="geometry">
            <mxRectangle width="30" height="30" as="alternateBounds" />
          </mxGeometry>
        </mxCell>
        <mxCell id="IFY6uD7Rp_7liyDfAHqy-535" value="title" style="shape=partialRectangle;connectable=0;fillColor=none;top=0;left=0;bottom=0;right=0;align=left;spacingLeft=6;overflow=hidden;whiteSpace=wrap;html=1;strokeColor=#E07A5F;fontColor=#393C56;" vertex="1" parent="IFY6uD7Rp_7liyDfAHqy-533">
          <mxGeometry x="30" width="150" height="30" as="geometry">
            <mxRectangle width="150" height="30" as="alternateBounds" />
          </mxGeometry>
        </mxCell>
        <mxCell id="IFY6uD7Rp_7liyDfAHqy-536" value="" style="shape=tableRow;horizontal=0;startSize=0;swimlaneHead=0;swimlaneBody=0;fillColor=none;collapsible=0;dropTarget=0;points=[[0,0.5],[1,0.5]];portConstraint=eastwest;top=0;left=0;right=0;bottom=0;strokeColor=#E07A5F;fontColor=#393C56;" vertex="1" parent="IFY6uD7Rp_7liyDfAHqy-523">
          <mxGeometry y="150" width="180" height="30" as="geometry" />
        </mxCell>
        <mxCell id="IFY6uD7Rp_7liyDfAHqy-537" value="" style="shape=partialRectangle;connectable=0;fillColor=none;top=0;left=0;bottom=0;right=0;editable=1;overflow=hidden;whiteSpace=wrap;html=1;strokeColor=#E07A5F;fontColor=#393C56;" vertex="1" parent="IFY6uD7Rp_7liyDfAHqy-536">
          <mxGeometry width="30" height="30" as="geometry">
            <mxRectangle width="30" height="30" as="alternateBounds" />
          </mxGeometry>
        </mxCell>
        <mxCell id="IFY6uD7Rp_7liyDfAHqy-538" value="content" style="shape=partialRectangle;connectable=0;fillColor=none;top=0;left=0;bottom=0;right=0;align=left;spacingLeft=6;overflow=hidden;whiteSpace=wrap;html=1;strokeColor=#E07A5F;fontColor=#393C56;" vertex="1" parent="IFY6uD7Rp_7liyDfAHqy-536">
          <mxGeometry x="30" width="150" height="30" as="geometry">
            <mxRectangle width="150" height="30" as="alternateBounds" />
          </mxGeometry>
        </mxCell>
        <mxCell id="IFY6uD7Rp_7liyDfAHqy-539" value="" style="shape=tableRow;horizontal=0;startSize=0;swimlaneHead=0;swimlaneBody=0;fillColor=none;collapsible=0;dropTarget=0;points=[[0,0.5],[1,0.5]];portConstraint=eastwest;top=0;left=0;right=0;bottom=0;strokeColor=#E07A5F;fontColor=#393C56;" vertex="1" parent="IFY6uD7Rp_7liyDfAHqy-523">
          <mxGeometry y="180" width="180" height="30" as="geometry" />
        </mxCell>
        <mxCell id="IFY6uD7Rp_7liyDfAHqy-540" value="" style="shape=partialRectangle;connectable=0;fillColor=none;top=0;left=0;bottom=0;right=0;editable=1;overflow=hidden;whiteSpace=wrap;html=1;strokeColor=#E07A5F;fontColor=#393C56;" vertex="1" parent="IFY6uD7Rp_7liyDfAHqy-539">
          <mxGeometry width="30" height="30" as="geometry">
            <mxRectangle width="30" height="30" as="alternateBounds" />
          </mxGeometry>
        </mxCell>
        <mxCell id="IFY6uD7Rp_7liyDfAHqy-541" value="position" style="shape=partialRectangle;connectable=0;fillColor=none;top=0;left=0;bottom=0;right=0;align=left;spacingLeft=6;overflow=hidden;whiteSpace=wrap;html=1;strokeColor=#E07A5F;fontColor=#393C56;" vertex="1" parent="IFY6uD7Rp_7liyDfAHqy-539">
          <mxGeometry x="30" width="150" height="30" as="geometry">
            <mxRectangle width="150" height="30" as="alternateBounds" />
          </mxGeometry>
        </mxCell>
        <mxCell id="IFY6uD7Rp_7liyDfAHqy-542" value="" style="shape=tableRow;horizontal=0;startSize=0;swimlaneHead=0;swimlaneBody=0;fillColor=none;collapsible=0;dropTarget=0;points=[[0,0.5],[1,0.5]];portConstraint=eastwest;top=0;left=0;right=0;bottom=0;strokeColor=#E07A5F;fontColor=#393C56;" vertex="1" parent="IFY6uD7Rp_7liyDfAHqy-523">
          <mxGeometry y="210" width="180" height="30" as="geometry" />
        </mxCell>
        <mxCell id="IFY6uD7Rp_7liyDfAHqy-543" value="FK" style="shape=partialRectangle;connectable=0;fillColor=none;top=0;left=0;bottom=0;right=0;editable=1;overflow=hidden;whiteSpace=wrap;html=1;strokeColor=#E07A5F;fontColor=#393C56;" vertex="1" parent="IFY6uD7Rp_7liyDfAHqy-542">
          <mxGeometry width="30" height="30" as="geometry">
            <mxRectangle width="30" height="30" as="alternateBounds" />
          </mxGeometry>
        </mxCell>
        <mxCell id="IFY6uD7Rp_7liyDfAHqy-544" value="status_id" style="shape=partialRectangle;connectable=0;fillColor=none;top=0;left=0;bottom=0;right=0;align=left;spacingLeft=6;overflow=hidden;whiteSpace=wrap;html=1;strokeColor=#E07A5F;fontColor=#393C56;" vertex="1" parent="IFY6uD7Rp_7liyDfAHqy-542">
          <mxGeometry x="30" width="150" height="30" as="geometry">
            <mxRectangle width="150" height="30" as="alternateBounds" />
          </mxGeometry>
        </mxCell>
        <mxCell id="IFY6uD7Rp_7liyDfAHqy-545" value="" style="shape=tableRow;horizontal=0;startSize=0;swimlaneHead=0;swimlaneBody=0;fillColor=none;collapsible=0;dropTarget=0;points=[[0,0.5],[1,0.5]];portConstraint=eastwest;top=0;left=0;right=0;bottom=0;strokeColor=#E07A5F;fontColor=#393C56;" vertex="1" parent="IFY6uD7Rp_7liyDfAHqy-523">
          <mxGeometry y="240" width="180" height="30" as="geometry" />
        </mxCell>
        <mxCell id="IFY6uD7Rp_7liyDfAHqy-546" value="" style="shape=partialRectangle;connectable=0;fillColor=none;top=0;left=0;bottom=0;right=0;editable=1;overflow=hidden;whiteSpace=wrap;html=1;strokeColor=#E07A5F;fontColor=#393C56;" vertex="1" parent="IFY6uD7Rp_7liyDfAHqy-545">
          <mxGeometry width="30" height="30" as="geometry">
            <mxRectangle width="30" height="30" as="alternateBounds" />
          </mxGeometry>
        </mxCell>
        <mxCell id="IFY6uD7Rp_7liyDfAHqy-547" value="date_created" style="shape=partialRectangle;connectable=0;fillColor=none;top=0;left=0;bottom=0;right=0;align=left;spacingLeft=6;overflow=hidden;whiteSpace=wrap;html=1;strokeColor=#E07A5F;fontColor=#393C56;" vertex="1" parent="IFY6uD7Rp_7liyDfAHqy-545">
          <mxGeometry x="30" width="150" height="30" as="geometry">
            <mxRectangle width="150" height="30" as="alternateBounds" />
          </mxGeometry>
        </mxCell>
        <mxCell id="IFY6uD7Rp_7liyDfAHqy-552" value="List" style="shape=table;startSize=30;container=1;collapsible=1;childLayout=tableLayout;fixedRows=1;rowLines=0;fontStyle=1;align=center;resizeLast=1;html=1;strokeColor=#E07A5F;fontColor=#393C56;fillColor=#F2CC8F;" vertex="1" parent="1">
          <mxGeometry x="121" y="-553" width="180" height="240" as="geometry" />
        </mxCell>
        <mxCell id="IFY6uD7Rp_7liyDfAHqy-553" value="" style="shape=tableRow;horizontal=0;startSize=0;swimlaneHead=0;swimlaneBody=0;fillColor=none;collapsible=0;dropTarget=0;points=[[0,0.5],[1,0.5]];portConstraint=eastwest;top=0;left=0;right=0;bottom=1;strokeColor=#E07A5F;fontColor=#393C56;" vertex="1" parent="IFY6uD7Rp_7liyDfAHqy-552">
          <mxGeometry y="30" width="180" height="30" as="geometry" />
        </mxCell>
        <mxCell id="IFY6uD7Rp_7liyDfAHqy-554" value="PK" style="shape=partialRectangle;connectable=0;fillColor=none;top=0;left=0;bottom=0;right=0;fontStyle=1;overflow=hidden;whiteSpace=wrap;html=1;strokeColor=#E07A5F;fontColor=#393C56;" vertex="1" parent="IFY6uD7Rp_7liyDfAHqy-553">
          <mxGeometry width="30" height="30" as="geometry">
            <mxRectangle width="30" height="30" as="alternateBounds" />
          </mxGeometry>
        </mxCell>
        <mxCell id="IFY6uD7Rp_7liyDfAHqy-555" value="id" style="shape=partialRectangle;connectable=0;fillColor=none;top=0;left=0;bottom=0;right=0;align=left;spacingLeft=6;fontStyle=5;overflow=hidden;whiteSpace=wrap;html=1;strokeColor=#E07A5F;fontColor=#393C56;" vertex="1" parent="IFY6uD7Rp_7liyDfAHqy-553">
          <mxGeometry x="30" width="150" height="30" as="geometry">
            <mxRectangle width="150" height="30" as="alternateBounds" />
          </mxGeometry>
        </mxCell>
        <mxCell id="IFY6uD7Rp_7liyDfAHqy-556" value="" style="shape=tableRow;horizontal=0;startSize=0;swimlaneHead=0;swimlaneBody=0;fillColor=none;collapsible=0;dropTarget=0;points=[[0,0.5],[1,0.5]];portConstraint=eastwest;top=0;left=0;right=0;bottom=0;strokeColor=#E07A5F;fontColor=#393C56;" vertex="1" parent="IFY6uD7Rp_7liyDfAHqy-552">
          <mxGeometry y="60" width="180" height="30" as="geometry" />
        </mxCell>
        <mxCell id="IFY6uD7Rp_7liyDfAHqy-557" value="" style="shape=partialRectangle;connectable=0;fillColor=none;top=0;left=0;bottom=0;right=0;editable=1;overflow=hidden;whiteSpace=wrap;html=1;strokeColor=#E07A5F;fontColor=#393C56;" vertex="1" parent="IFY6uD7Rp_7liyDfAHqy-556">
          <mxGeometry width="30" height="30" as="geometry">
            <mxRectangle width="30" height="30" as="alternateBounds" />
          </mxGeometry>
        </mxCell>
        <mxCell id="IFY6uD7Rp_7liyDfAHqy-558" value="title" style="shape=partialRectangle;connectable=0;fillColor=none;top=0;left=0;bottom=0;right=0;align=left;spacingLeft=6;overflow=hidden;whiteSpace=wrap;html=1;strokeColor=#E07A5F;fontColor=#393C56;" vertex="1" parent="IFY6uD7Rp_7liyDfAHqy-556">
          <mxGeometry x="30" width="150" height="30" as="geometry">
            <mxRectangle width="150" height="30" as="alternateBounds" />
          </mxGeometry>
        </mxCell>
        <mxCell id="IFY6uD7Rp_7liyDfAHqy-559" value="" style="shape=tableRow;horizontal=0;startSize=0;swimlaneHead=0;swimlaneBody=0;fillColor=none;collapsible=0;dropTarget=0;points=[[0,0.5],[1,0.5]];portConstraint=eastwest;top=0;left=0;right=0;bottom=0;strokeColor=#E07A5F;fontColor=#393C56;" vertex="1" parent="IFY6uD7Rp_7liyDfAHqy-552">
          <mxGeometry y="90" width="180" height="30" as="geometry" />
        </mxCell>
        <mxCell id="IFY6uD7Rp_7liyDfAHqy-560" value="" style="shape=partialRectangle;connectable=0;fillColor=none;top=0;left=0;bottom=0;right=0;editable=1;overflow=hidden;whiteSpace=wrap;html=1;strokeColor=#E07A5F;fontColor=#393C56;" vertex="1" parent="IFY6uD7Rp_7liyDfAHqy-559">
          <mxGeometry width="30" height="30" as="geometry">
            <mxRectangle width="30" height="30" as="alternateBounds" />
          </mxGeometry>
        </mxCell>
        <mxCell id="IFY6uD7Rp_7liyDfAHqy-561" value="follow" style="shape=partialRectangle;connectable=0;fillColor=none;top=0;left=0;bottom=0;right=0;align=left;spacingLeft=6;overflow=hidden;whiteSpace=wrap;html=1;strokeColor=#E07A5F;fontColor=#393C56;" vertex="1" parent="IFY6uD7Rp_7liyDfAHqy-559">
          <mxGeometry x="30" width="150" height="30" as="geometry">
            <mxRectangle width="150" height="30" as="alternateBounds" />
          </mxGeometry>
        </mxCell>
        <mxCell id="IFY6uD7Rp_7liyDfAHqy-562" value="" style="shape=tableRow;horizontal=0;startSize=0;swimlaneHead=0;swimlaneBody=0;fillColor=none;collapsible=0;dropTarget=0;points=[[0,0.5],[1,0.5]];portConstraint=eastwest;top=0;left=0;right=0;bottom=0;strokeColor=#E07A5F;fontColor=#393C56;" vertex="1" parent="IFY6uD7Rp_7liyDfAHqy-552">
          <mxGeometry y="120" width="180" height="30" as="geometry" />
        </mxCell>
        <mxCell id="IFY6uD7Rp_7liyDfAHqy-563" value="" style="shape=partialRectangle;connectable=0;fillColor=none;top=0;left=0;bottom=0;right=0;editable=1;overflow=hidden;whiteSpace=wrap;html=1;strokeColor=#E07A5F;fontColor=#393C56;" vertex="1" parent="IFY6uD7Rp_7liyDfAHqy-562">
          <mxGeometry width="30" height="30" as="geometry">
            <mxRectangle width="30" height="30" as="alternateBounds" />
          </mxGeometry>
        </mxCell>
        <mxCell id="IFY6uD7Rp_7liyDfAHqy-564" value="start" style="shape=partialRectangle;connectable=0;fillColor=none;top=0;left=0;bottom=0;right=0;align=left;spacingLeft=6;overflow=hidden;whiteSpace=wrap;html=1;strokeColor=#E07A5F;fontColor=#393C56;" vertex="1" parent="IFY6uD7Rp_7liyDfAHqy-562">
          <mxGeometry x="30" width="150" height="30" as="geometry">
            <mxRectangle width="150" height="30" as="alternateBounds" />
          </mxGeometry>
        </mxCell>
        <mxCell id="IFY6uD7Rp_7liyDfAHqy-565" value="" style="shape=tableRow;horizontal=0;startSize=0;swimlaneHead=0;swimlaneBody=0;fillColor=none;collapsible=0;dropTarget=0;points=[[0,0.5],[1,0.5]];portConstraint=eastwest;top=0;left=0;right=0;bottom=0;strokeColor=#E07A5F;fontColor=#393C56;" vertex="1" parent="IFY6uD7Rp_7liyDfAHqy-552">
          <mxGeometry y="150" width="180" height="30" as="geometry" />
        </mxCell>
        <mxCell id="IFY6uD7Rp_7liyDfAHqy-566" value="" style="shape=partialRectangle;connectable=0;fillColor=none;top=0;left=0;bottom=0;right=0;editable=1;overflow=hidden;whiteSpace=wrap;html=1;strokeColor=#E07A5F;fontColor=#393C56;" vertex="1" parent="IFY6uD7Rp_7liyDfAHqy-565">
          <mxGeometry width="30" height="30" as="geometry">
            <mxRectangle width="30" height="30" as="alternateBounds" />
          </mxGeometry>
        </mxCell>
        <mxCell id="IFY6uD7Rp_7liyDfAHqy-567" value="description" style="shape=partialRectangle;connectable=0;fillColor=none;top=0;left=0;bottom=0;right=0;align=left;spacingLeft=6;overflow=hidden;whiteSpace=wrap;html=1;strokeColor=#E07A5F;fontColor=#393C56;" vertex="1" parent="IFY6uD7Rp_7liyDfAHqy-565">
          <mxGeometry x="30" width="150" height="30" as="geometry">
            <mxRectangle width="150" height="30" as="alternateBounds" />
          </mxGeometry>
        </mxCell>
        <mxCell id="IFY6uD7Rp_7liyDfAHqy-635" value="" style="shape=tableRow;horizontal=0;startSize=0;swimlaneHead=0;swimlaneBody=0;fillColor=none;collapsible=0;dropTarget=0;points=[[0,0.5],[1,0.5]];portConstraint=eastwest;top=0;left=0;right=0;bottom=0;strokeColor=#E07A5F;fontColor=#393C56;" vertex="1" parent="IFY6uD7Rp_7liyDfAHqy-552">
          <mxGeometry y="180" width="180" height="30" as="geometry" />
        </mxCell>
        <mxCell id="IFY6uD7Rp_7liyDfAHqy-636" value="" style="shape=partialRectangle;connectable=0;fillColor=none;top=0;left=0;bottom=0;right=0;editable=1;overflow=hidden;whiteSpace=wrap;html=1;strokeColor=#E07A5F;fontColor=#393C56;" vertex="1" parent="IFY6uD7Rp_7liyDfAHqy-635">
          <mxGeometry width="30" height="30" as="geometry">
            <mxRectangle width="30" height="30" as="alternateBounds" />
          </mxGeometry>
        </mxCell>
        <mxCell id="IFY6uD7Rp_7liyDfAHqy-637" value="hashtag" style="shape=partialRectangle;connectable=0;fillColor=none;top=0;left=0;bottom=0;right=0;align=left;spacingLeft=6;overflow=hidden;whiteSpace=wrap;html=1;strokeColor=#E07A5F;fontColor=#393C56;" vertex="1" parent="IFY6uD7Rp_7liyDfAHqy-635">
          <mxGeometry x="30" width="150" height="30" as="geometry">
            <mxRectangle width="150" height="30" as="alternateBounds" />
          </mxGeometry>
        </mxCell>
        <mxCell id="IFY6uD7Rp_7liyDfAHqy-568" value="" style="shape=tableRow;horizontal=0;startSize=0;swimlaneHead=0;swimlaneBody=0;fillColor=none;collapsible=0;dropTarget=0;points=[[0,0.5],[1,0.5]];portConstraint=eastwest;top=0;left=0;right=0;bottom=0;strokeColor=#E07A5F;fontColor=#393C56;" vertex="1" parent="IFY6uD7Rp_7liyDfAHqy-552">
          <mxGeometry y="210" width="180" height="30" as="geometry" />
        </mxCell>
        <mxCell id="IFY6uD7Rp_7liyDfAHqy-569" value="" style="shape=partialRectangle;connectable=0;fillColor=none;top=0;left=0;bottom=0;right=0;editable=1;overflow=hidden;whiteSpace=wrap;html=1;strokeColor=#E07A5F;fontColor=#393C56;" vertex="1" parent="IFY6uD7Rp_7liyDfAHqy-568">
          <mxGeometry width="30" height="30" as="geometry">
            <mxRectangle width="30" height="30" as="alternateBounds" />
          </mxGeometry>
        </mxCell>
        <mxCell id="IFY6uD7Rp_7liyDfAHqy-570" value="sumary" style="shape=partialRectangle;connectable=0;fillColor=none;top=0;left=0;bottom=0;right=0;align=left;spacingLeft=6;overflow=hidden;whiteSpace=wrap;html=1;strokeColor=#E07A5F;fontColor=#393C56;" vertex="1" parent="IFY6uD7Rp_7liyDfAHqy-568">
          <mxGeometry x="30" width="150" height="30" as="geometry">
            <mxRectangle width="150" height="30" as="alternateBounds" />
          </mxGeometry>
        </mxCell>
        <mxCell id="IFY6uD7Rp_7liyDfAHqy-584" value="List_blog" style="shape=table;startSize=30;container=1;collapsible=1;childLayout=tableLayout;fixedRows=1;rowLines=0;fontStyle=1;align=center;resizeLast=1;html=1;whiteSpace=wrap;strokeColor=#E07A5F;fontColor=#393C56;fillColor=#F2CC8F;" vertex="1" parent="1">
          <mxGeometry x="394" y="-588" width="180" height="120" as="geometry" />
        </mxCell>
        <mxCell id="IFY6uD7Rp_7liyDfAHqy-585" value="" style="shape=tableRow;horizontal=0;startSize=0;swimlaneHead=0;swimlaneBody=0;fillColor=none;collapsible=0;dropTarget=0;points=[[0,0.5],[1,0.5]];portConstraint=eastwest;top=0;left=0;right=0;bottom=0;html=1;strokeColor=#E07A5F;fontColor=#393C56;" vertex="1" parent="IFY6uD7Rp_7liyDfAHqy-584">
          <mxGeometry y="30" width="180" height="30" as="geometry" />
        </mxCell>
        <mxCell id="IFY6uD7Rp_7liyDfAHqy-586" value="PK,FK1" style="shape=partialRectangle;connectable=0;fillColor=none;top=0;left=0;bottom=0;right=0;fontStyle=1;overflow=hidden;html=1;whiteSpace=wrap;strokeColor=#E07A5F;fontColor=#393C56;" vertex="1" parent="IFY6uD7Rp_7liyDfAHqy-585">
          <mxGeometry width="60" height="30" as="geometry">
            <mxRectangle width="60" height="30" as="alternateBounds" />
          </mxGeometry>
        </mxCell>
        <mxCell id="IFY6uD7Rp_7liyDfAHqy-587" value="list_id" style="shape=partialRectangle;connectable=0;fillColor=none;top=0;left=0;bottom=0;right=0;align=left;spacingLeft=6;fontStyle=5;overflow=hidden;html=1;whiteSpace=wrap;strokeColor=#E07A5F;fontColor=#393C56;" vertex="1" parent="IFY6uD7Rp_7liyDfAHqy-585">
          <mxGeometry x="60" width="120" height="30" as="geometry">
            <mxRectangle width="120" height="30" as="alternateBounds" />
          </mxGeometry>
        </mxCell>
        <mxCell id="IFY6uD7Rp_7liyDfAHqy-588" value="" style="shape=tableRow;horizontal=0;startSize=0;swimlaneHead=0;swimlaneBody=0;fillColor=none;collapsible=0;dropTarget=0;points=[[0,0.5],[1,0.5]];portConstraint=eastwest;top=0;left=0;right=0;bottom=1;html=1;strokeColor=#E07A5F;fontColor=#393C56;" vertex="1" parent="IFY6uD7Rp_7liyDfAHqy-584">
          <mxGeometry y="60" width="180" height="30" as="geometry" />
        </mxCell>
        <mxCell id="IFY6uD7Rp_7liyDfAHqy-589" value="PK,FK2" style="shape=partialRectangle;connectable=0;fillColor=none;top=0;left=0;bottom=0;right=0;fontStyle=1;overflow=hidden;html=1;whiteSpace=wrap;strokeColor=#E07A5F;fontColor=#393C56;" vertex="1" parent="IFY6uD7Rp_7liyDfAHqy-588">
          <mxGeometry width="60" height="30" as="geometry">
            <mxRectangle width="60" height="30" as="alternateBounds" />
          </mxGeometry>
        </mxCell>
        <mxCell id="IFY6uD7Rp_7liyDfAHqy-590" value="blog_id" style="shape=partialRectangle;connectable=0;fillColor=none;top=0;left=0;bottom=0;right=0;align=left;spacingLeft=6;fontStyle=5;overflow=hidden;html=1;whiteSpace=wrap;strokeColor=#E07A5F;fontColor=#393C56;" vertex="1" parent="IFY6uD7Rp_7liyDfAHqy-588">
          <mxGeometry x="60" width="120" height="30" as="geometry">
            <mxRectangle width="120" height="30" as="alternateBounds" />
          </mxGeometry>
        </mxCell>
        <mxCell id="IFY6uD7Rp_7liyDfAHqy-591" value="" style="shape=tableRow;horizontal=0;startSize=0;swimlaneHead=0;swimlaneBody=0;fillColor=none;collapsible=0;dropTarget=0;points=[[0,0.5],[1,0.5]];portConstraint=eastwest;top=0;left=0;right=0;bottom=0;html=1;strokeColor=#E07A5F;fontColor=#393C56;" vertex="1" parent="IFY6uD7Rp_7liyDfAHqy-584">
          <mxGeometry y="90" width="180" height="30" as="geometry" />
        </mxCell>
        <mxCell id="IFY6uD7Rp_7liyDfAHqy-592" value="" style="shape=partialRectangle;connectable=0;fillColor=none;top=0;left=0;bottom=0;right=0;editable=1;overflow=hidden;html=1;whiteSpace=wrap;strokeColor=#E07A5F;fontColor=#393C56;" vertex="1" parent="IFY6uD7Rp_7liyDfAHqy-591">
          <mxGeometry width="60" height="30" as="geometry">
            <mxRectangle width="60" height="30" as="alternateBounds" />
          </mxGeometry>
        </mxCell>
        <mxCell id="IFY6uD7Rp_7liyDfAHqy-593" value="position" style="shape=partialRectangle;connectable=0;fillColor=none;top=0;left=0;bottom=0;right=0;align=left;spacingLeft=6;overflow=hidden;html=1;whiteSpace=wrap;strokeColor=#E07A5F;fontColor=#393C56;" vertex="1" parent="IFY6uD7Rp_7liyDfAHqy-591">
          <mxGeometry x="60" width="120" height="30" as="geometry">
            <mxRectangle width="120" height="30" as="alternateBounds" />
          </mxGeometry>
        </mxCell>
        <mxCell id="IFY6uD7Rp_7liyDfAHqy-610" value="Hashtag" style="shape=table;startSize=30;container=1;collapsible=1;childLayout=tableLayout;fixedRows=1;rowLines=0;fontStyle=1;align=center;resizeLast=1;html=1;strokeColor=#E07A5F;fontColor=#393C56;fillColor=#F2CC8F;" vertex="1" parent="1">
          <mxGeometry x="602" y="616" width="180" height="180" as="geometry" />
        </mxCell>
        <mxCell id="IFY6uD7Rp_7liyDfAHqy-611" value="" style="shape=tableRow;horizontal=0;startSize=0;swimlaneHead=0;swimlaneBody=0;fillColor=none;collapsible=0;dropTarget=0;points=[[0,0.5],[1,0.5]];portConstraint=eastwest;top=0;left=0;right=0;bottom=1;strokeColor=#E07A5F;fontColor=#393C56;" vertex="1" parent="IFY6uD7Rp_7liyDfAHqy-610">
          <mxGeometry y="30" width="180" height="30" as="geometry" />
        </mxCell>
        <mxCell id="IFY6uD7Rp_7liyDfAHqy-612" value="PK" style="shape=partialRectangle;connectable=0;fillColor=none;top=0;left=0;bottom=0;right=0;fontStyle=1;overflow=hidden;whiteSpace=wrap;html=1;strokeColor=#E07A5F;fontColor=#393C56;" vertex="1" parent="IFY6uD7Rp_7liyDfAHqy-611">
          <mxGeometry width="30" height="30" as="geometry">
            <mxRectangle width="30" height="30" as="alternateBounds" />
          </mxGeometry>
        </mxCell>
        <mxCell id="IFY6uD7Rp_7liyDfAHqy-613" value="id" style="shape=partialRectangle;connectable=0;fillColor=none;top=0;left=0;bottom=0;right=0;align=left;spacingLeft=6;fontStyle=5;overflow=hidden;whiteSpace=wrap;html=1;strokeColor=#E07A5F;fontColor=#393C56;" vertex="1" parent="IFY6uD7Rp_7liyDfAHqy-611">
          <mxGeometry x="30" width="150" height="30" as="geometry">
            <mxRectangle width="150" height="30" as="alternateBounds" />
          </mxGeometry>
        </mxCell>
        <mxCell id="IFY6uD7Rp_7liyDfAHqy-614" value="" style="shape=tableRow;horizontal=0;startSize=0;swimlaneHead=0;swimlaneBody=0;fillColor=none;collapsible=0;dropTarget=0;points=[[0,0.5],[1,0.5]];portConstraint=eastwest;top=0;left=0;right=0;bottom=0;strokeColor=#E07A5F;fontColor=#393C56;" vertex="1" parent="IFY6uD7Rp_7liyDfAHqy-610">
          <mxGeometry y="60" width="180" height="30" as="geometry" />
        </mxCell>
        <mxCell id="IFY6uD7Rp_7liyDfAHqy-615" value="" style="shape=partialRectangle;connectable=0;fillColor=none;top=0;left=0;bottom=0;right=0;editable=1;overflow=hidden;whiteSpace=wrap;html=1;strokeColor=#E07A5F;fontColor=#393C56;" vertex="1" parent="IFY6uD7Rp_7liyDfAHqy-614">
          <mxGeometry width="30" height="30" as="geometry">
            <mxRectangle width="30" height="30" as="alternateBounds" />
          </mxGeometry>
        </mxCell>
        <mxCell id="IFY6uD7Rp_7liyDfAHqy-616" value="title" style="shape=partialRectangle;connectable=0;fillColor=none;top=0;left=0;bottom=0;right=0;align=left;spacingLeft=6;overflow=hidden;whiteSpace=wrap;html=1;strokeColor=#E07A5F;fontColor=#393C56;" vertex="1" parent="IFY6uD7Rp_7liyDfAHqy-614">
          <mxGeometry x="30" width="150" height="30" as="geometry">
            <mxRectangle width="150" height="30" as="alternateBounds" />
          </mxGeometry>
        </mxCell>
        <mxCell id="IFY6uD7Rp_7liyDfAHqy-617" value="" style="shape=tableRow;horizontal=0;startSize=0;swimlaneHead=0;swimlaneBody=0;fillColor=none;collapsible=0;dropTarget=0;points=[[0,0.5],[1,0.5]];portConstraint=eastwest;top=0;left=0;right=0;bottom=0;strokeColor=#E07A5F;fontColor=#393C56;" vertex="1" parent="IFY6uD7Rp_7liyDfAHqy-610">
          <mxGeometry y="90" width="180" height="30" as="geometry" />
        </mxCell>
        <mxCell id="IFY6uD7Rp_7liyDfAHqy-618" value="" style="shape=partialRectangle;connectable=0;fillColor=none;top=0;left=0;bottom=0;right=0;editable=1;overflow=hidden;whiteSpace=wrap;html=1;strokeColor=#E07A5F;fontColor=#393C56;" vertex="1" parent="IFY6uD7Rp_7liyDfAHqy-617">
          <mxGeometry width="30" height="30" as="geometry">
            <mxRectangle width="30" height="30" as="alternateBounds" />
          </mxGeometry>
        </mxCell>
        <mxCell id="IFY6uD7Rp_7liyDfAHqy-619" value="value" style="shape=partialRectangle;connectable=0;fillColor=none;top=0;left=0;bottom=0;right=0;align=left;spacingLeft=6;overflow=hidden;whiteSpace=wrap;html=1;strokeColor=#E07A5F;fontColor=#393C56;" vertex="1" parent="IFY6uD7Rp_7liyDfAHqy-617">
          <mxGeometry x="30" width="150" height="30" as="geometry">
            <mxRectangle width="150" height="30" as="alternateBounds" />
          </mxGeometry>
        </mxCell>
        <mxCell id="IFY6uD7Rp_7liyDfAHqy-620" value="" style="shape=tableRow;horizontal=0;startSize=0;swimlaneHead=0;swimlaneBody=0;fillColor=none;collapsible=0;dropTarget=0;points=[[0,0.5],[1,0.5]];portConstraint=eastwest;top=0;left=0;right=0;bottom=0;strokeColor=#E07A5F;fontColor=#393C56;" vertex="1" parent="IFY6uD7Rp_7liyDfAHqy-610">
          <mxGeometry y="120" width="180" height="30" as="geometry" />
        </mxCell>
        <mxCell id="IFY6uD7Rp_7liyDfAHqy-621" value="" style="shape=partialRectangle;connectable=0;fillColor=none;top=0;left=0;bottom=0;right=0;editable=1;overflow=hidden;whiteSpace=wrap;html=1;strokeColor=#E07A5F;fontColor=#393C56;" vertex="1" parent="IFY6uD7Rp_7liyDfAHqy-620">
          <mxGeometry width="30" height="30" as="geometry">
            <mxRectangle width="30" height="30" as="alternateBounds" />
          </mxGeometry>
        </mxCell>
        <mxCell id="IFY6uD7Rp_7liyDfAHqy-622" value="status_id" style="shape=partialRectangle;connectable=0;fillColor=none;top=0;left=0;bottom=0;right=0;align=left;spacingLeft=6;overflow=hidden;whiteSpace=wrap;html=1;strokeColor=#E07A5F;fontColor=#393C56;" vertex="1" parent="IFY6uD7Rp_7liyDfAHqy-620">
          <mxGeometry x="30" width="150" height="30" as="geometry">
            <mxRectangle width="150" height="30" as="alternateBounds" />
          </mxGeometry>
        </mxCell>
        <mxCell id="IFY6uD7Rp_7liyDfAHqy-638" value="" style="shape=tableRow;horizontal=0;startSize=0;swimlaneHead=0;swimlaneBody=0;fillColor=none;collapsible=0;dropTarget=0;points=[[0,0.5],[1,0.5]];portConstraint=eastwest;top=0;left=0;right=0;bottom=0;strokeColor=#E07A5F;fontColor=#393C56;" vertex="1" parent="IFY6uD7Rp_7liyDfAHqy-610">
          <mxGeometry y="150" width="180" height="30" as="geometry" />
        </mxCell>
        <mxCell id="IFY6uD7Rp_7liyDfAHqy-639" value="" style="shape=partialRectangle;connectable=0;fillColor=none;top=0;left=0;bottom=0;right=0;editable=1;overflow=hidden;whiteSpace=wrap;html=1;strokeColor=#E07A5F;fontColor=#393C56;" vertex="1" parent="IFY6uD7Rp_7liyDfAHqy-638">
          <mxGeometry width="30" height="30" as="geometry">
            <mxRectangle width="30" height="30" as="alternateBounds" />
          </mxGeometry>
        </mxCell>
        <mxCell id="IFY6uD7Rp_7liyDfAHqy-640" value="date_created" style="shape=partialRectangle;connectable=0;fillColor=none;top=0;left=0;bottom=0;right=0;align=left;spacingLeft=6;overflow=hidden;whiteSpace=wrap;html=1;strokeColor=#E07A5F;fontColor=#393C56;" vertex="1" parent="IFY6uD7Rp_7liyDfAHqy-638">
          <mxGeometry x="30" width="150" height="30" as="geometry">
            <mxRectangle width="150" height="30" as="alternateBounds" />
          </mxGeometry>
        </mxCell>
        <mxCell id="IFY6uD7Rp_7liyDfAHqy-641" value="Setting" style="shape=table;startSize=30;container=1;collapsible=1;childLayout=tableLayout;fixedRows=1;rowLines=0;fontStyle=1;align=center;resizeLast=1;html=1;strokeColor=#E07A5F;fontColor=#393C56;fillColor=#F2CC8F;" vertex="1" parent="1">
          <mxGeometry x="1148" y="402" width="180" height="150" as="geometry" />
        </mxCell>
        <mxCell id="IFY6uD7Rp_7liyDfAHqy-642" value="" style="shape=tableRow;horizontal=0;startSize=0;swimlaneHead=0;swimlaneBody=0;fillColor=none;collapsible=0;dropTarget=0;points=[[0,0.5],[1,0.5]];portConstraint=eastwest;top=0;left=0;right=0;bottom=1;strokeColor=#E07A5F;fontColor=#393C56;" vertex="1" parent="IFY6uD7Rp_7liyDfAHqy-641">
          <mxGeometry y="30" width="180" height="30" as="geometry" />
        </mxCell>
        <mxCell id="IFY6uD7Rp_7liyDfAHqy-643" value="PK" style="shape=partialRectangle;connectable=0;fillColor=none;top=0;left=0;bottom=0;right=0;fontStyle=1;overflow=hidden;whiteSpace=wrap;html=1;strokeColor=#E07A5F;fontColor=#393C56;" vertex="1" parent="IFY6uD7Rp_7liyDfAHqy-642">
          <mxGeometry width="30" height="30" as="geometry">
            <mxRectangle width="30" height="30" as="alternateBounds" />
          </mxGeometry>
        </mxCell>
        <mxCell id="IFY6uD7Rp_7liyDfAHqy-644" value="id" style="shape=partialRectangle;connectable=0;fillColor=none;top=0;left=0;bottom=0;right=0;align=left;spacingLeft=6;fontStyle=5;overflow=hidden;whiteSpace=wrap;html=1;strokeColor=#E07A5F;fontColor=#393C56;" vertex="1" parent="IFY6uD7Rp_7liyDfAHqy-642">
          <mxGeometry x="30" width="150" height="30" as="geometry">
            <mxRectangle width="150" height="30" as="alternateBounds" />
          </mxGeometry>
        </mxCell>
        <mxCell id="IFY6uD7Rp_7liyDfAHqy-645" value="" style="shape=tableRow;horizontal=0;startSize=0;swimlaneHead=0;swimlaneBody=0;fillColor=none;collapsible=0;dropTarget=0;points=[[0,0.5],[1,0.5]];portConstraint=eastwest;top=0;left=0;right=0;bottom=0;strokeColor=#E07A5F;fontColor=#393C56;" vertex="1" parent="IFY6uD7Rp_7liyDfAHqy-641">
          <mxGeometry y="60" width="180" height="30" as="geometry" />
        </mxCell>
        <mxCell id="IFY6uD7Rp_7liyDfAHqy-646" value="" style="shape=partialRectangle;connectable=0;fillColor=none;top=0;left=0;bottom=0;right=0;editable=1;overflow=hidden;whiteSpace=wrap;html=1;strokeColor=#E07A5F;fontColor=#393C56;" vertex="1" parent="IFY6uD7Rp_7liyDfAHqy-645">
          <mxGeometry width="30" height="30" as="geometry">
            <mxRectangle width="30" height="30" as="alternateBounds" />
          </mxGeometry>
        </mxCell>
        <mxCell id="IFY6uD7Rp_7liyDfAHqy-647" value="back_ground" style="shape=partialRectangle;connectable=0;fillColor=none;top=0;left=0;bottom=0;right=0;align=left;spacingLeft=6;overflow=hidden;whiteSpace=wrap;html=1;strokeColor=#E07A5F;fontColor=#393C56;" vertex="1" parent="IFY6uD7Rp_7liyDfAHqy-645">
          <mxGeometry x="30" width="150" height="30" as="geometry">
            <mxRectangle width="150" height="30" as="alternateBounds" />
          </mxGeometry>
        </mxCell>
        <mxCell id="IFY6uD7Rp_7liyDfAHqy-648" value="" style="shape=tableRow;horizontal=0;startSize=0;swimlaneHead=0;swimlaneBody=0;fillColor=none;collapsible=0;dropTarget=0;points=[[0,0.5],[1,0.5]];portConstraint=eastwest;top=0;left=0;right=0;bottom=0;strokeColor=#E07A5F;fontColor=#393C56;" vertex="1" parent="IFY6uD7Rp_7liyDfAHqy-641">
          <mxGeometry y="90" width="180" height="30" as="geometry" />
        </mxCell>
        <mxCell id="IFY6uD7Rp_7liyDfAHqy-649" value="" style="shape=partialRectangle;connectable=0;fillColor=none;top=0;left=0;bottom=0;right=0;editable=1;overflow=hidden;whiteSpace=wrap;html=1;strokeColor=#E07A5F;fontColor=#393C56;" vertex="1" parent="IFY6uD7Rp_7liyDfAHqy-648">
          <mxGeometry width="30" height="30" as="geometry">
            <mxRectangle width="30" height="30" as="alternateBounds" />
          </mxGeometry>
        </mxCell>
        <mxCell id="IFY6uD7Rp_7liyDfAHqy-650" value="font_size" style="shape=partialRectangle;connectable=0;fillColor=none;top=0;left=0;bottom=0;right=0;align=left;spacingLeft=6;overflow=hidden;whiteSpace=wrap;html=1;strokeColor=#E07A5F;fontColor=#393C56;" vertex="1" parent="IFY6uD7Rp_7liyDfAHqy-648">
          <mxGeometry x="30" width="150" height="30" as="geometry">
            <mxRectangle width="150" height="30" as="alternateBounds" />
          </mxGeometry>
        </mxCell>
        <mxCell id="IFY6uD7Rp_7liyDfAHqy-651" value="" style="shape=tableRow;horizontal=0;startSize=0;swimlaneHead=0;swimlaneBody=0;fillColor=none;collapsible=0;dropTarget=0;points=[[0,0.5],[1,0.5]];portConstraint=eastwest;top=0;left=0;right=0;bottom=0;strokeColor=#E07A5F;fontColor=#393C56;" vertex="1" parent="IFY6uD7Rp_7liyDfAHqy-641">
          <mxGeometry y="120" width="180" height="30" as="geometry" />
        </mxCell>
        <mxCell id="IFY6uD7Rp_7liyDfAHqy-652" value="" style="shape=partialRectangle;connectable=0;fillColor=none;top=0;left=0;bottom=0;right=0;editable=1;overflow=hidden;whiteSpace=wrap;html=1;strokeColor=#E07A5F;fontColor=#393C56;" vertex="1" parent="IFY6uD7Rp_7liyDfAHqy-651">
          <mxGeometry width="30" height="30" as="geometry">
            <mxRectangle width="30" height="30" as="alternateBounds" />
          </mxGeometry>
        </mxCell>
        <mxCell id="IFY6uD7Rp_7liyDfAHqy-653" value="line_hight" style="shape=partialRectangle;connectable=0;fillColor=none;top=0;left=0;bottom=0;right=0;align=left;spacingLeft=6;overflow=hidden;whiteSpace=wrap;html=1;strokeColor=#E07A5F;fontColor=#393C56;" vertex="1" parent="IFY6uD7Rp_7liyDfAHqy-651">
          <mxGeometry x="30" width="150" height="30" as="geometry">
            <mxRectangle width="150" height="30" as="alternateBounds" />
          </mxGeometry>
        </mxCell>
      </root>
    </mxGraphModel>
  </diagram>
</mxfile>
